<?xml version="1.0" encoding="UTF-8" standalone="no"?>
<!-- Created using Krita: https://krita.org -->

<svg
   width="110.05846pt"
   height="127.61995pt"
   viewBox="0 0 110.05846 127.61995"
   version="1.1"
   id="svg38"
   sodipodi:docname="roboter_with_magnifier.svg"
   inkscape:version="1.3.1 (91b66b0, 2023-11-16)"
   xml:space="preserve"
   xmlns:inkscape="http://www.inkscape.org/namespaces/inkscape"
   xmlns:sodipodi="http://sodipodi.sourceforge.net/DTD/sodipodi-0.dtd"
   xmlns="http://www.w3.org/2000/svg"
   xmlns:svg="http://www.w3.org/2000/svg"><sodipodi:namedview
     id="namedview40"
     pagecolor="#2d2e3a"
     bordercolor="#000000"
     borderopacity="0.25"
     inkscape:showpageshadow="2"
     inkscape:pageopacity="0"
     inkscape:pagecheckerboard="0"
     inkscape:deskcolor="#d1d1d1"
     inkscape:document-units="pt"
     showgrid="false"
     inkscape:zoom="3.1372071"
     inkscape:cx="89.570115"
     inkscape:cy="111.24545"
     inkscape:window-width="1879"
     inkscape:window-height="1014"
     inkscape:window-x="41"
     inkscape:window-y="0"
     inkscape:window-maximized="1"
     inkscape:current-layer="svg38"
     showguides="false" /><defs
     id="defs2" /><rect
     id="shape0"
     fill="none"
     stroke="#000000"
     stroke-width="0.6"
     stroke-linecap="square"
     stroke-linejoin="bevel"
     width="51.599129"
     height="35.670876"
     rx="3.2859695"
     ry="3.2859695"
     x="16.548077"
     y="8.1762753"
     style="fill:#fef9ec;fill-opacity:1;stroke:#23557e;stroke-opacity:1" /><rect
     id="shape06"
     fill="none"
     stroke="#000000"
     stroke-width="0.6"
     stroke-linecap="square"
     stroke-linejoin="bevel"
     width="47.369995"
     height="31.589996"
     rx="3.0166471"
     ry="2.9100428"
     x="18.661068"
     y="10.349977"
     style="fill:#3c5366;fill-opacity:1;stroke:#23557e;stroke-opacity:1" /><rect
     id="shape1"
     fill="none"
     stroke="#000000"
     stroke-width="0.6"
     stroke-linecap="square"
     stroke-linejoin="bevel"
     width="14.64"
     height="14.4"
     rx="3.7813377"
     ry="3.7813377"
     x="23.495897"
     y="18.454134"
     style="fill:#fef9ec;fill-opacity:1;stroke:#23557e;stroke-opacity:1" /><rect
     id="shape01"
     fill="none"
     stroke="#000000"
     stroke-width="0.6"
     stroke-linecap="square"
     stroke-linejoin="bevel"
     width="14.64"
     height="14.4"
     rx="3.7813377"
     ry="3.7813377"
     x="46.493649"
     y="18.53887"
     style="fill:#fef9ec;fill-opacity:1;stroke:#23557e;stroke-opacity:1" /><path
     id="shape2"
     fill="none"
     stroke="#000000"
     stroke-width="0.6"
     stroke-linecap="square"
     stroke-linejoin="bevel"
     d="m 29.427358,20.605068 1.48278,0.06 c 2.18426,0 3.51996,1.72475 3.51996,3.96335 v 2.35821 c 0,2.2386 -1.5007,3.69334 -3.68496,3.69334 h -1.12278 c -2.18426,0 -4.01496,-1.54474 -4.01496,-3.78334 l 0.01615,-2.30942 c 0,-0.5793 0.228591,-1.90426 0.425374,-2.3961 0.774208,4.15483 6.177578,1.74396 3.378438,-1.58604 z"
     sodipodi:nodetypes="cccccccccc"
     style="fill:#3c5366;fill-opacity:1;stroke:#23557e;stroke-opacity:1" /><path
     id="shape02"
     fill="none"
     stroke="#000000"
     stroke-width="0.6"
     stroke-linecap="square"
     stroke-linejoin="bevel"
     d="m 52.438568,20.286724 1.48278,0.06 c 2.18426,0 3.51996,1.72475 3.51996,3.96335 v 2.35821 c 0,2.2386 -1.5007,3.69334 -3.68496,3.69334 h -1.12278 c -2.18426,0 -4.01496,-1.54474 -4.01496,-3.78334 l 0.01615,-2.30942 c 0,-0.5793 0.228591,-1.90426 0.425374,-2.3961 0.774208,4.15483 6.177578,1.74396 3.378438,-1.58604 z"
     sodipodi:nodetypes="cccccccccc"
     style="fill:#3c5366;fill-opacity:1;stroke:#23557e;stroke-opacity:1" /><path
     id="shape3"
     fill="none"
     stroke="#000000"
     stroke-width="0.6"
     stroke-linecap="square"
     stroke-linejoin="bevel"
     d="m 47.116068,43.919975 -0.405,3.600004 h 14.22 l 2.79,28.889986 -41.49,-0.18 3.33,-28.799996 11.07,0.09 0.315,-3.69 c 0,0 3.39,0.03 10.17,0.09001 z"
     sodipodi:nodetypes="ccccccccc"
     style="fill:#fef9ec;fill-opacity:1;stroke:#23557e;stroke-opacity:1" /><path
     id="shape4"
     fill="none"
     stroke="#000000"
     stroke-width="0.6"
     stroke-linecap="square"
     stroke-linejoin="bevel"
     d="m 27.001078,49.139976 -2.79,25.379999 37.2,0.06 -1.8,-25.259996 c -0.04,0.2 -8.80323,0.139999 -32.61,-0.180003 z"
     sodipodi:nodetypes="ccccc"
     style="fill:#3c5366;fill-opacity:1;stroke:#23557e;stroke-opacity:1" /><path
     id="shape5"
     fill="none"
     stroke="#000000"
     stroke-width="0.6"
     stroke-linecap="square"
     stroke-linejoin="bevel"
     d="m 61.651068,54.899973 c 12.1435,-1.7628 21.4056,-5.7612 24.3,-14.7 -4.2788,-4.68508 -0.9332,-8.43177 2.4,-12.18 0.768,0.876805 1.6526,1.70696 2.13,2.7 -4.0064,4.0093 -1.9321,5.34031 2.1,6.06 1.1398,-2.10775 1.8169,-3.12752 2.9775,-3.81 1.063195,0.43868 2.518995,0.6934 3.592495,1.65 -1.713,3.28165 -3.137995,6.7329 -8.099995,8.1 -5.3414,14.969 -19.43393,20.4657 -28.26,21.51 -0.12,0.34 -0.5,-2.77 -1.14,-9.33 z"
     sodipodi:nodetypes="cccccccccc"
     style="fill:#fef9ec;fill-opacity:1;stroke:#23557e;stroke-opacity:1" /><path
     id="shape6"
     fill="none"
     stroke="#000000"
     stroke-width="0.6"
     stroke-linecap="square"
     stroke-linejoin="bevel"
     d="m 24.631121,53.339976 c -20.8916204,3.32832 -25.7319404,15.7838 -22.2000504,32.999999 -4.32559,5.7868 -0.83816,7.7086 -0.22499,9.24 0.95356,-0.8679 2.00192,-1.5462 2.655,-3.015 l -0.45,-2.655 c 3.6890196,-1.0434 4.1586896,-0.1552 6.0750404,-0.135 l -1.4850408,2.97 c 0.68135,1.4801 1.7461408,2.2893 2.7300408,3.24 1.4874,-3.0292 5.3671,-6.3974 -1.71004,-11.415 -0.2513808,-8.9816 -0.1581308,-18.165599 13.88994,-21.989999 0,0 0.24,-3.08 0.7201,-9.24 z"
     sodipodi:nodetypes="ccccccccccc"
     style="fill:#fef9ec;fill-opacity:1;stroke:#23557e;stroke-opacity:1" /><path
     id="shape7"
     fill="none"
     stroke="#000000"
     stroke-width="0.6"
     stroke-linecap="square"
     stroke-linejoin="bevel"
     d="m 24.767977,76.246845 c 0.242,3.29979 0.257,5.99763 2.1506,8.93062 l -11.3325,18.089985 c -2.1426,1.1313 -4.67391,2.4307 -4.98001,6.9 -2.9237908,-0.7377 -5.9421804,1.6935 -8.9849904,4.9425 l 14.9400004,9.84 c 3.0649,-5.149 2.3356,-7.3893 1.92,-9.87 4.0577,-1.3857 3.9933,-4.6222 4.26,-7.71 l 11.13,-16.710005 c 5.517,3.0238 10.141,3.1699 14.22,1.56 l 0.525,17.205005 c -2.2345,3.3278 -2.6555,6.3923 -1.17,9.18 -2.6631,2.0663 -3.6983,5.2178 -4.215,8.715 l 17.88,-0.06 c 0.1148,-3.569 -0.4433,-6.9218 -3.66,-9.42 1.938,-2.7441 1.4281,-5.6559 -1.0125,-8.7 l 0.3975,-21.840005 c 2.1817,-2.43385 4.2369,-5.09014 4.455,-10.97998 -0.0038,0.0712 -12.1781,0.0469 -36.5231,-0.0731 z"
     sodipodi:nodetypes="ccccccccccccccccccc"
     style="fill:#fef9ec;fill-opacity:1;stroke:#23557e;stroke-opacity:1" /><path
     id="shape9"
     fill="none"
     stroke="#000000"
     stroke-width="0.6"
     stroke-linecap="square"
     stroke-linejoin="bevel"
     d="m 49.936068,108.04497 c 1.46907,-0.3111 3.28751,-0.642 4.995,-0.03 l -0.0975,-18.555005 c -1.33694,1.01133 -2.96806,1.84616 -4.905,2.4975 0.21,0 0.2125,5.3625 0.0075,16.087505 z"
     sodipodi:nodetypes="ccccc"
     style="fill:#3c5366;fill-opacity:1;stroke:#23557e;stroke-opacity:1" /><ellipse
     id="shape10"
     rx="4.1624999"
     ry="4.5675001"
     cx="52.583576"
     cy="114.41248"
     fill="none"
     stroke="#000000"
     stroke-width="0.6"
     stroke-linecap="square"
     stroke-linejoin="bevel"
     style="fill:#3c5366;fill-opacity:1;stroke:#23557e;stroke-opacity:1" /><ellipse
     id="shape03"
     transform="rotate(32.897732)"
     rx="4.1624999"
     ry="4.5675001"
     cx="73.428413"
     cy="82.8022"
     fill="none"
     stroke="#000000"
     stroke-width="0.6"
     stroke-linecap="square"
     stroke-linejoin="bevel"
     style="fill:#3c5366;fill-opacity:1;stroke:#23557e;stroke-opacity:1" /><path
     id="shape11"
     fill="none"
     stroke="#000000"
     stroke-width="0.6"
     stroke-linecap="square"
     stroke-linejoin="bevel"
     d="m 45.113568,125.81997 c 0.900342,-2.1535 1.77591,-4.7149 3.7125,-6.12 3.51998,1.65753 5.59808,1.11651 7.8075,-0.27 2.1401,1.91456 2.4544,4.01592 2.5425,6.165 0.045,0.195 -4.6425,0.27 -14.0625,0.225 z"
     sodipodi:nodetypes="ccccc"
     style="fill:#3c5366;fill-opacity:1;stroke:#23557e;stroke-opacity:1" /><path
     id="shape12"
     fill="none"
     stroke="#000000"
     stroke-width="0.6"
     stroke-linecap="square"
     stroke-linejoin="bevel"
     d="m 4.5310676,114.98997 c 2.8044696,-2.54339 4.6066396,-3.64967 6.2100004,-2.94001 1.30978,2.13718 2.05812,3.53942 6.15,3.69001 0.8138,2.70982 -0.4553,5.01399 -0.78,6.89998 -2.92135,-2.12278 -6.7813508,-4.67278 -11.5800004,-7.64998 z"
     sodipodi:nodetypes="ccccc"
     style="fill:#3c5366;fill-opacity:1;stroke:#23557e;stroke-opacity:1" /><path
     id="shape13"
     fill="none"
     stroke="#000000"
     stroke-width="0.6"
     stroke-linecap="square"
     stroke-linejoin="bevel"
     d="m 17.877328,103.04248 10.5637,-16.237505 c 1.2302,1.45914 2.5704,2.36815 3.96,3.03 l -10.36495,15.795005 c -1.19846,-1.3131 -2.58471,-2.1756 -4.15875,-2.5875 z"
     sodipodi:nodetypes="ccccc"
     style="fill:#3c5366;fill-opacity:1;stroke:#23557e;stroke-opacity:1" /><path
     id="shape14"
     fill="none"
     stroke="#000000"
     stroke-width="0.6"
     stroke-linecap="square"
     stroke-linejoin="bevel"
     d="m 24.541078,54.779976 c -1.47415,0.252931 -3.00521,0.555182 -5.07,1.32 l 1.02,6.015 c 1.15559,-0.61038 2.3461,-0.98954 3.66,-0.885 -0.14,0.24 -0.01,-1.91 0.39,-6.45 z"
     sodipodi:nodetypes="ccccc"
     style="fill:#3c5366;fill-opacity:1;stroke:#23557e;stroke-opacity:1" /><path
     id="shape15"
     fill="none"
     stroke="#000000"
     stroke-width="0.6"
     stroke-linecap="square"
     stroke-linejoin="bevel"
     d="m 17.783578,56.707476 c -1.98183,0.585299 -3.88258,1.4341 -5.625,2.7975 l 2.91,5.45625 c 1.31951,-0.87169 2.64452,-1.71036 3.99375,-2.40375 0.0675,0.3 -0.35875,-1.65 -1.27875,-5.85 z"
     sodipodi:nodetypes="ccccc"
     style="fill:#3c5366;fill-opacity:1;stroke:#23557e;stroke-opacity:1" /><path
     id="shape16"
     fill="none"
     stroke="#000000"
     stroke-width="0.6"
     stroke-linecap="square"
     stroke-linejoin="bevel"
     d="m 10.861078,60.809976 c -1.8756308,0.881523 -3.4012718,2.15192 -4.2000008,4.23 l 4.8225008,3.885 c 0.71426,-0.86435 0.61577,-1.40514 2.3475,-2.805 0.12,0.18 -0.87,-1.59 -2.97,-5.31 z"
     sodipodi:nodetypes="ccccc"
     style="fill:#3c5366;fill-opacity:1;stroke:#23557e;stroke-opacity:1" /><path
     id="shape17"
     fill="none"
     stroke="#000000"
     stroke-width="0.6"
     stroke-linecap="square"
     stroke-linejoin="bevel"
     d="m 5.4235766,66.779976 c -1.126246,1.84688 -1.388238,3.95384 -1.98,5.917499 l 5.8949996,0.72 c 0.07448,-1.055119 0.48888,-2.034689 1.1025008,-2.969999 -0.15,-0.03 -1.8225008,-1.2525 -5.0175004,-3.6675 z"
     sodipodi:nodetypes="ccccc"
     style="fill:#3c5366;fill-opacity:1;stroke:#23557e;stroke-opacity:1" /><path
     id="shape18"
     fill="none"
     stroke="#000000"
     stroke-width="0.6"
     stroke-linecap="square"
     stroke-linejoin="bevel"
     d="m 3.1735736,74.527465 c -0.387816,2.03178 -0.2374377,3.69667 -0.03,5.2125 l 5.2199956,0.045 c 0.10325,-1.47769 0.23739,-2.9631 0.5775,-4.5 0.105,-0.165 -1.8175,-0.4175 -5.7674956,-0.7575 z"
     sodipodi:nodetypes="ccccc"
     style="fill:#3c5366;fill-opacity:1;stroke:#23557e;stroke-opacity:1" /><path
     id="shape19"
     fill="none"
     stroke="#000000"
     stroke-width="0.6"
     stroke-linecap="square"
     stroke-linejoin="bevel"
     d="m 3.3835706,81.547475 0.33,2.99999 4.5899996,-0.225 -0.0675,-2.91749 c 0.255,-0.055 -1.3625,-0.007 -4.8524996,0.1425 z"
     sodipodi:nodetypes="ccccc"
     style="fill:#3c5366;fill-opacity:1;stroke:#23557e;stroke-opacity:1" /><path
     id="shape20"
     fill="none"
     stroke="#000000"
     stroke-width="0.6"
     stroke-linecap="square"
     stroke-linejoin="bevel"
     d="m 61.891068,56.489976 c 2.34451,-0.142449 3.72709,-0.429187 4.8825,-0.75 l 0.7275,5.955 c -1.33846,0.61654 -3.21141,0.69859 -5.01,0.855 0,0 -0.2,-2.02 -0.6,-6.06 z"
     sodipodi:nodetypes="ccccc"
     style="fill:#3c5366;fill-opacity:1;stroke:#23557e;stroke-opacity:1" /><path
     id="shape21"
     fill="none"
     stroke="#000000"
     stroke-width="0.6"
     stroke-linecap="square"
     stroke-linejoin="bevel"
     d="m 68.438568,55.432476 0.8175,5.76 c 1.62884,-0.50027 3.22917,-1.04805 4.68,-1.845 l -1.155,-5.115004 c -0.20111,-0.0648 -1.64861,0.3352 -4.3425,1.200004 z"
     sodipodi:nodetypes="ccccc"
     style="fill:#3c5366;fill-opacity:1;stroke:#23557e;stroke-opacity:1" /><path
     id="shape22"
     fill="none"
     stroke="#000000"
     stroke-width="0.6"
     stroke-linecap="square"
     stroke-linejoin="bevel"
     d="m 74.468568,53.647476 1.2225,4.6725 c 2.09788,-1.26228 4.26049,-2.4868 5.6625,-4.155 l -1.9875,-3.315 c -0.82329,0.893012 -2.45579,1.82551 -4.8975,2.7975 z"
     sodipodi:nodetypes="ccccc"
     style="fill:#3c5366;fill-opacity:1;stroke:#23557e;stroke-opacity:1" /><path
     id="shape23"
     fill="none"
     stroke="#000000"
     stroke-width="0.6"
     stroke-linecap="square"
     stroke-linejoin="bevel"
     d="m 81.038568,49.822469 1.8375,2.8875 c 1.30237,-1.25263 2.48339,-2.62661 3.3675,-4.2975 l -2.265,-1.41 c 0.05975,0.231515 -0.92025,1.17151 -2.94,2.82 z"
     sodipodi:nodetypes="ccccc"
     style="fill:#3c5366;fill-opacity:1;stroke:#23557e;stroke-opacity:1" /><path
     id="shape24"
     fill="none"
     stroke="#000000"
     stroke-width="0.6"
     stroke-linecap="square"
     stroke-linejoin="bevel"
     d="m 85.066068,45.839969 c 0.54,0.14 1.235,0.505 2.085,1.095 0.62747,-1.06086 1.61445,-1.87429 1.695,-3.555 l -2.07,-0.84 c 0.17152,0.303698 -0.39848,1.4037 -1.71,3.3 z"
     sodipodi:nodetypes="ccccc"
     style="fill:#3c5366;fill-opacity:1;stroke:#23557e;stroke-opacity:1" /><path
     id="shape25"
     fill="none"
     stroke="#000000"
     stroke-width="0.6"
     stroke-linecap="square"
     stroke-linejoin="bevel"
     d="m 70.606078,16.064975 -0.045,15.885047 4.86,-0.045 0.09,-15.907547 c 0,-0.105 -1.635,-0.0825 -4.905,0.0675 z"
     sodipodi:nodetypes="ccccc"
     style="fill:#fef9ec;fill-opacity:1;stroke:#23557e;stroke-opacity:1" /><path
     id="shape04"
     fill="none"
     stroke="#000000"
     stroke-width="0.6"
     stroke-linecap="square"
     stroke-linejoin="bevel"
     d="m 9.3677472,16.080132 -0.045,15.885047 4.8600008,-0.045 0.09,-15.907547 c 0,-0.105 -1.635,-0.0825 -4.9050008,0.0675 z"
     sodipodi:nodetypes="ccccc"
     style="fill:#fef9ec;fill-opacity:1;stroke:#23557e;stroke-opacity:1" /><path
     id="shape26"
     fill="none"
     stroke="#000000"
     stroke-width="0.6"
     stroke-linecap="square"
     stroke-linejoin="bevel"
     d="m 10.951078,15.899974 0.06,-12.5399999 c 0.255585,-1.83247 0.01071,-2.99255795 3,-3.05999895 l 55.92,0.71999895 c 3.0426,-0.25220195 4.1225,1.15636 4.05,3.54 l 0.03,11.4899999 c -2.4808,-0.2081 -0.85,-0.05 -1.65,-0.09 l 0.21,-10.2599999 c 0.2778,-2.46352 -1.0592,-3.41519 -3.6,-3.24 l -54.18,-0.36 c -1.08414,-0.07373 -2.58598,0.24794 -2.31,1.83 V 15.809974 c 0.38,-0.14 -0.13,-0.11 -1.53,0.09 z"
     sodipodi:nodetypes="ccccccccccccc"
     style="fill:#fef9ec;fill-opacity:1;stroke:#23557e;stroke-opacity:1" /><rect
     id="shape27"
     fill="none"
     stroke="#000000"
     stroke-width="0.6"
     stroke-linecap="square"
     stroke-linejoin="bevel"
     width="25.68"
     height="19.26"
     rx="7.8600001"
     ry="7.8600001"
     x="30.361076"
     y="52.469982"
     style="fill:#fef9ec;fill-opacity:1;stroke:#23557e;stroke-opacity:1" /><rect
     id="shape05"
     fill="none"
     stroke="#000000"
     stroke-width="0.6"
     stroke-linecap="square"
     stroke-linejoin="bevel"
     width="22.666157"
     height="16.59"
     rx="6.9375386"
     ry="6.7703738"
     x="31.897415"
     y="53.759975"
     style="stroke:#23557e;stroke-opacity:1" /><path
     id="shape8"
     fill="none"
     stroke="#000000"
     stroke-width="0.6"
     stroke-linecap="square"
     stroke-linejoin="bevel"
     d="m 26.371068,77.669965 c 0.642292,7.4818 6.15497,12.0467 15.435,13.77 10.342,-0.273 16.5065,-4.55846 17.73,-13.59 0,0.09 -11.055,0.03 -33.165,-0.18 z"
     sodipodi:nodetypes="cccc"
     style="fill:#3c5366;fill-opacity:1;stroke:#23557e;stroke-opacity:1" /><g
     inkscape:label="Layer 1"
     id="layer1"
     transform="matrix(0.19950173,0.1499917,-0.1499917,0.19950173,88.37091,-18.490605)"><path
       style="fill:#23557e;stroke-width:4;fill-opacity:1"
       d="m 170.08353,187.37483 -6.18295,7.75488 -55.85615,-54.80818 -8.802842,6.07815 -16.243343,3.56306 -14.461815,-2.82949 -13.09947,-6.70693 -7.96448,-9.01243 -6.706928,-13.93784 -0.419182,-17.815278 5.134991,-14.042633 7.126113,-8.90764 10.584373,-7.440498 14.357019,-4.611016 16.557731,1.362345 14.671403,7.754887 8.69805,9.64121 5.55418,12.575493 1.67673,13.83304 -4.40142,16.55773 -4.71581,6.49734 z"
       id="path421" /><path
       style="fill:#fef9ec;stroke-width:4;fill-opacity:1"
       d="m 72.623465,76.815296 -10.374781,5.344583 -7.126113,8.488457 -3.772646,9.326822 -0.523981,8.907642 2.5151,11.84192 5.344584,7.85968 8.593254,6.91652 8.907639,2.82949 11.213148,0.52398 10.898758,-4.40143 7.230903,-5.55417 5.0302,-7.23091 3.14388,-12.47069 -1.04796,-12.051518 -5.86856,-10.479574 -8.383666,-7.440501 -9.746007,-3.353464 -9.746006,-0.628775 z"
       id="path479" /><path
       style="fill:#fef9ec;stroke-width:0.264583;fill-opacity:1"
       d="m 162.53867,195.73423 c -0.56571,-0.15305 -8.47121,-7.89419 -27.51618,-26.94408 -14.69733,-14.70113 -26.79052,-26.72933 -26.87374,-26.72933 -0.0832,0 -1.14613,0.65449 -2.362,1.45442 -12.501292,8.22467 -28.744548,9.23943 -42.467484,2.65306 -8.346306,-4.00584 -16.14192,-11.7967 -20.087112,-20.07488 -5.78131,-12.13089 -5.78131,-25.78429 0,-37.915188 3.952126,-8.292725 11.73351,-16.064196 20.087764,-20.062174 12.046672,-5.765006 25.75948,-5.759829 37.875312,0.0143 5.73182,2.73166 11.6798,7.668357 15.71758,13.04527 10.79801,14.379178 11.47416,34.360462 1.67338,49.451072 -0.78296,1.20555 -1.42356,2.27734 -1.42356,2.38175 0,0.1044 11.91388,12.09585 26.4753,26.64766 14.56142,14.55181 26.64626,26.77934 26.85521,27.1723 0.48264,0.90769 0.48538,2.15258 0.007,3.06899 -0.32352,0.61939 -5.19832,5.60925 -5.47993,5.60925 -0.0569,0 -0.45993,0.0995 -0.89553,0.22116 -0.4356,0.12164 -1.14919,0.12452 -1.58575,0.006 z m 3.91922,-4.42385 c 1.40969,-1.43482 2.56307,-2.77289 2.56307,-2.97348 0,-0.20059 -11.97117,-12.33805 -26.60259,-26.97215 l -26.60259,-26.60745 -2.97445,2.92415 -2.97445,2.92416 26.59999,26.65677 c 14.62999,14.66123 26.78627,26.65677 27.01397,26.65677 0.22769,0 1.56736,-1.17395 2.97705,-2.60877 z M 87.007068,148.13226 c 9.25839,-1.15035 17.087102,-4.82111 23.601842,-11.06655 15.36067,-14.72569 17.22443,-38.025694 4.39825,-54.985082 -5.96287,-7.884382 -14.63594,-13.283242 -24.832032,-15.457577 -3.77793,-0.80565 -11.26588,-0.872772 -15.213543,-0.136374 -11.36278,2.119611 -21.27208,8.741257 -27.507016,18.380888 -2.651527,4.099438 -4.905681,9.861591 -5.864957,14.992221 -0.68743,3.676684 -0.687993,10.870004 -0.0011,14.552084 1.486188,7.96713 5.207904,15.3371 10.586737,20.96449 7.05845,7.38463 15.603988,11.61766 25.961379,12.85997 1.79144,0.21487 6.77397,0.15641 8.87048,-0.10407 z m -8.20903,-8.36859 c -8.91807,-0.92255 -17.313423,-5.74834 -22.984961,-13.21215 -1.871993,-2.46356 -4.368062,-7.6019 -5.19022,-10.68445 -2.094641,-7.85351 -1.310279,-15.965624 2.238479,-23.151031 2.457936,-4.976747 5.601275,-8.735702 10.055474,-12.024815 11.135261,-8.22261 26.546078,-8.425757 38.00958,-0.501046 4.46565,3.0871 8.98822,8.58642 11.2173,13.639923 6.18437,14.020429 1.88218,30.351079 -10.46168,39.711389 -2.527332,1.91647 -7.628992,4.39105 -10.713132,5.19645 -4.00555,1.04602 -8.39705,1.41612 -12.17084,1.02573 z m 8.47922,-2.3634 c 12.968732,-2.22772 22.997102,-12.25608 25.224822,-25.22481 2.53471,-14.755884 -6.43837,-29.559581 -20.746432,-34.227236 -17.761065,-5.794117 -36.603835,5.64345 -39.782472,24.147976 -3.529824,20.54896 14.75511,38.8339 35.304082,35.30407 z"
       id="path248" /></g></svg>
