<?xml version="1.0" encoding="UTF-8" standalone="no"?>
<!-- Created using Krita: https://krita.org -->

<svg
   width="103.29667pt"
   height="155.1205pt"
   viewBox="0 0 103.29667 155.1205"
   version="1.1"
   id="svg38"
   sodipodi:docname="roboter_with_question_marks.svg"
   inkscape:version="1.3.1 (91b66b0, 2023-11-16)"
   xml:space="preserve"
   xmlns:inkscape="http://www.inkscape.org/namespaces/inkscape"
   xmlns:sodipodi="http://sodipodi.sourceforge.net/DTD/sodipodi-0.dtd"
   xmlns="http://www.w3.org/2000/svg"
   xmlns:svg="http://www.w3.org/2000/svg"><sodipodi:namedview
     id="namedview40"
     pagecolor="#2d2e3a"
     bordercolor="#000000"
     borderopacity="0.25"
     inkscape:showpageshadow="2"
     inkscape:pageopacity="0"
     inkscape:pagecheckerboard="0"
     inkscape:deskcolor="#d1d1d1"
     inkscape:document-units="pt"
     showgrid="false"
     inkscape:zoom="4.4366808"
     inkscape:cx="52.967525"
     inkscape:cy="130.95375"
     inkscape:window-width="1879"
     inkscape:window-height="1014"
     inkscape:window-x="41"
     inkscape:window-y="0"
     inkscape:window-maximized="1"
     inkscape:current-layer="svg38"
     showguides="false" /><defs
     id="defs2" /><rect
     id="shape0"
     fill="none"
     stroke="#000000"
     stroke-width="0.6"
     stroke-linecap="square"
     stroke-linejoin="bevel"
     width="51.599129"
     height="35.670876"
     rx="3.2859695"
     ry="3.2859695"
     x="20.427734"
     y="35.67683"
     style="fill:#fef9ec;fill-opacity:1;stroke:#23557e;stroke-opacity:1" /><rect
     id="shape06"
     fill="none"
     stroke="#000000"
     stroke-width="0.6"
     stroke-linecap="square"
     stroke-linejoin="bevel"
     width="47.369995"
     height="31.589996"
     rx="3.0166471"
     ry="2.9100428"
     x="22.540726"
     y="37.850533"
     style="fill:#3c5366;fill-opacity:1;stroke:#23557e;stroke-opacity:1" /><rect
     id="shape1"
     fill="none"
     stroke="#000000"
     stroke-width="0.6"
     stroke-linecap="square"
     stroke-linejoin="bevel"
     width="14.64"
     height="14.4"
     rx="3.7813377"
     ry="3.7813377"
     x="27.375555"
     y="45.954689"
     style="fill:#fef9ec;fill-opacity:1;stroke:#23557e;stroke-opacity:1" /><rect
     id="shape01"
     fill="none"
     stroke="#000000"
     stroke-width="0.6"
     stroke-linecap="square"
     stroke-linejoin="bevel"
     width="14.64"
     height="14.4"
     rx="3.7813377"
     ry="3.7813377"
     x="50.373306"
     y="46.039425"
     style="fill:#fef9ec;fill-opacity:1;stroke:#23557e;stroke-opacity:1" /><path
     id="shape2"
     fill="none"
     stroke="#000000"
     stroke-width="0.6"
     stroke-linecap="square"
     stroke-linejoin="bevel"
     d="m 33.307015,48.105623 1.48278,0.06 c 2.18426,0 3.51996,1.72475 3.51996,3.96335 v 2.35821 c 0,2.2386 -1.5007,3.69334 -3.68496,3.69334 h -1.12278 c -2.18426,0 -4.01496,-1.54474 -4.01496,-3.78334 l 0.01615,-2.30942 c 0,-0.5793 0.228591,-1.90426 0.425374,-2.3961 0.774208,4.15483 6.177578,1.74396 3.378438,-1.58604 z"
     sodipodi:nodetypes="cccccccccc"
     style="fill:#3c5366;fill-opacity:1;stroke:#23557e;stroke-opacity:1" /><path
     id="shape02"
     fill="none"
     stroke="#000000"
     stroke-width="0.6"
     stroke-linecap="square"
     stroke-linejoin="bevel"
     d="m 56.318225,47.787279 1.48278,0.06 c 2.18426,0 3.51996,1.72475 3.51996,3.96335 v 2.35821 c 0,2.2386 -1.5007,3.69334 -3.68496,3.69334 h -1.12278 c -2.18426,0 -4.01496,-1.54474 -4.01496,-3.78334 l 0.01615,-2.30942 c 0,-0.5793 0.228591,-1.90426 0.425374,-2.3961 0.774208,4.15483 6.177578,1.74396 3.378438,-1.58604 z"
     sodipodi:nodetypes="cccccccccc"
     style="fill:#3c5366;fill-opacity:1;stroke:#23557e;stroke-opacity:1" /><path
     id="shape3"
     fill="none"
     stroke="#000000"
     stroke-width="0.6"
     stroke-linecap="square"
     stroke-linejoin="bevel"
     d="m 50.995725,71.42053 -0.405,3.600004 h 14.22 l 2.79,28.889986 -41.49,-0.18 3.33,-28.799996 11.07,0.09 0.315,-3.69 c 0,0 3.39,0.03 10.17,0.09001 z"
     sodipodi:nodetypes="ccccccccc"
     style="fill:#fef9ec;fill-opacity:1;stroke:#23557e;stroke-opacity:1" /><path
     id="shape4"
     fill="none"
     stroke="#000000"
     stroke-width="0.6"
     stroke-linecap="square"
     stroke-linejoin="bevel"
     d="m 30.880735,76.640531 -2.79,25.379999 37.2,0.06 -1.8,-25.259996 c -0.04,0.2 -8.80323,0.139999 -32.61,-0.180003 z"
     sodipodi:nodetypes="ccccc"
     style="fill:#3c5366;fill-opacity:1;stroke:#23557e;stroke-opacity:1" /><path
     id="shape5"
     fill="none"
     stroke="#000000"
     stroke-width="0.6"
     stroke-linecap="square"
     stroke-linejoin="bevel"
     d="m 65.530725,82.400528 c 12.1435,-1.7628 21.4056,-5.7612 24.3,-14.7 -4.2788,-4.68508 -0.9332,-8.43177 2.4,-12.18 0.768,0.876805 1.6526,1.70696 2.13,2.7 -4.0064,4.0093 -1.9321,5.34031 2.1,6.06 1.1398,-2.10775 1.8169,-3.12752 2.9775,-3.81 1.063195,0.43868 2.518995,0.6934 3.592495,1.65 -1.713,3.28165 -3.137995,6.7329 -8.099995,8.1 -5.3414,14.969 -19.43393,20.4657 -28.26,21.51 -0.12,0.34 -0.5,-2.77 -1.14,-9.33 z"
     sodipodi:nodetypes="cccccccccc"
     style="fill:#fef9ec;fill-opacity:1;stroke:#23557e;stroke-opacity:1" /><path
     id="shape6"
     fill="none"
     stroke="#000000"
     stroke-width="0.6"
     stroke-linecap="square"
     stroke-linejoin="bevel"
     d="m 28.510778,80.840531 c -20.8916206,3.32832 -25.7319406,15.7838 -22.2000506,32.999999 -4.32559,5.7868 -0.83816,7.7086 -0.22499,9.24 0.95356,-0.8679 2.00192,-1.5462 2.655,-3.015 l -0.45,-2.655 c 3.6890196,-1.0434 4.1586896,-0.1552 6.0750406,-0.135 l -1.485041,2.97 c 0.68135,1.4801 1.746141,2.2893 2.730041,3.24 1.4874,-3.0292 5.3671,-6.3974 -1.71004,-11.415 -0.251381,-8.9816 -0.158131,-18.165599 13.88994,-21.989999 0,0 0.24,-3.08 0.7201,-9.24 z"
     sodipodi:nodetypes="ccccccccccc"
     style="fill:#fef9ec;fill-opacity:1;stroke:#23557e;stroke-opacity:1" /><path
     id="shape7"
     fill="none"
     stroke="#000000"
     stroke-width="0.6"
     stroke-linecap="square"
     stroke-linejoin="bevel"
     d="m 28.647634,103.7474 c 0.242,3.29979 0.257,5.99763 2.1506,8.93062 l -11.3325,18.08998 c -2.1426,1.1313 -4.67391,2.4307 -4.98001,6.9 -2.923791,-0.7377 -5.9421806,1.6935 -8.9849906,4.9425 l 14.9400006,9.84 c 3.0649,-5.149 2.3356,-7.3893 1.92,-9.87 4.0577,-1.3857 3.9933,-4.6222 4.26,-7.71 l 11.13,-16.71 c 5.517,3.0238 10.141,3.1699 14.22,1.56 l 0.525,17.205 c -2.2345,3.3278 -2.6555,6.3923 -1.17,9.18 -2.6631,2.0663 -3.6983,5.2178 -4.215,8.715 l 17.88,-0.06 c 0.1148,-3.569 -0.4433,-6.9218 -3.66,-9.42 1.938,-2.7441 1.4281,-5.6559 -1.0125,-8.7 l 0.3975,-21.84 c 2.1817,-2.43385 4.2369,-5.09014 4.455,-10.97998 -0.0038,0.0712 -12.1781,0.0469 -36.5231,-0.0731 z"
     sodipodi:nodetypes="ccccccccccccccccccc"
     style="fill:#fef9ec;fill-opacity:1;stroke:#23557e;stroke-opacity:1" /><path
     id="shape9"
     fill="none"
     stroke="#000000"
     stroke-width="0.6"
     stroke-linecap="square"
     stroke-linejoin="bevel"
     d="m 53.815725,135.54552 c 1.46907,-0.3111 3.28751,-0.642 4.995,-0.03 l -0.0975,-18.555 c -1.33694,1.01133 -2.96806,1.84616 -4.905,2.4975 0.21,0 0.2125,5.3625 0.0075,16.0875 z"
     sodipodi:nodetypes="ccccc"
     style="fill:#3c5366;fill-opacity:1;stroke:#23557e;stroke-opacity:1" /><ellipse
     id="shape10"
     rx="4.1624999"
     ry="4.5675001"
     cx="56.463234"
     cy="141.91304"
     fill="none"
     stroke="#000000"
     stroke-width="0.6"
     stroke-linecap="square"
     stroke-linejoin="bevel"
     style="fill:#3c5366;fill-opacity:1;stroke:#23557e;stroke-opacity:1" /><ellipse
     id="shape03"
     transform="rotate(32.897732)"
     rx="4.1624999"
     ry="4.5675001"
     cx="91.62262"
     cy="103.7856"
     fill="none"
     stroke="#000000"
     stroke-width="0.6"
     stroke-linecap="square"
     stroke-linejoin="bevel"
     style="fill:#3c5366;fill-opacity:1;stroke:#23557e;stroke-opacity:1" /><path
     id="shape11"
     fill="none"
     stroke="#000000"
     stroke-width="0.6"
     stroke-linecap="square"
     stroke-linejoin="bevel"
     d="m 48.993225,153.32052 c 0.900342,-2.1535 1.77591,-4.7149 3.7125,-6.12 3.51998,1.65753 5.59808,1.11651 7.8075,-0.27 2.1401,1.91456 2.4544,4.01592 2.5425,6.165 0.045,0.195 -4.6425,0.27 -14.0625,0.225 z"
     sodipodi:nodetypes="ccccc"
     style="fill:#3c5366;fill-opacity:1;stroke:#23557e;stroke-opacity:1" /><path
     id="shape12"
     fill="none"
     stroke="#000000"
     stroke-width="0.6"
     stroke-linecap="square"
     stroke-linejoin="bevel"
     d="m 8.4107244,142.49052 c 2.8044696,-2.54339 4.6066396,-3.64967 6.2100006,-2.94001 1.30978,2.13718 2.05812,3.53942 6.15,3.69001 0.8138,2.70982 -0.4553,5.01399 -0.78,6.89998 -2.92135,-2.12278 -6.781351,-4.67278 -11.5800006,-7.64998 z"
     sodipodi:nodetypes="ccccc"
     style="fill:#3c5366;fill-opacity:1;stroke:#23557e;stroke-opacity:1" /><path
     id="shape13"
     fill="none"
     stroke="#000000"
     stroke-width="0.6"
     stroke-linecap="square"
     stroke-linejoin="bevel"
     d="m 21.756985,130.54303 10.5637,-16.2375 c 1.2302,1.45914 2.5704,2.36815 3.96,3.03 l -10.36495,15.795 c -1.19846,-1.3131 -2.58471,-2.1756 -4.15875,-2.5875 z"
     sodipodi:nodetypes="ccccc"
     style="fill:#3c5366;fill-opacity:1;stroke:#23557e;stroke-opacity:1" /><path
     id="shape14"
     fill="none"
     stroke="#000000"
     stroke-width="0.6"
     stroke-linecap="square"
     stroke-linejoin="bevel"
     d="m 28.420735,82.280531 c -1.47415,0.252931 -3.00521,0.555182 -5.07,1.32 l 1.02,6.015 c 1.15559,-0.61038 2.3461,-0.98954 3.66,-0.885 -0.14,0.24 -0.01,-1.91 0.39,-6.45 z"
     sodipodi:nodetypes="ccccc"
     style="fill:#3c5366;fill-opacity:1;stroke:#23557e;stroke-opacity:1" /><path
     id="shape15"
     fill="none"
     stroke="#000000"
     stroke-width="0.6"
     stroke-linecap="square"
     stroke-linejoin="bevel"
     d="m 21.663235,84.208031 c -1.98183,0.585299 -3.88258,1.4341 -5.625,2.7975 l 2.91,5.45625 c 1.31951,-0.87169 2.64452,-1.71036 3.99375,-2.40375 0.0675,0.3 -0.35875,-1.65 -1.27875,-5.85 z"
     sodipodi:nodetypes="ccccc"
     style="fill:#3c5366;fill-opacity:1;stroke:#23557e;stroke-opacity:1" /><path
     id="shape16"
     fill="none"
     stroke="#000000"
     stroke-width="0.6"
     stroke-linecap="square"
     stroke-linejoin="bevel"
     d="m 14.740735,88.310531 c -1.875631,0.881523 -3.401272,2.15192 -4.200001,4.23 l 4.822501,3.885 c 0.71426,-0.86435 0.61577,-1.40514 2.3475,-2.805 0.12,0.18 -0.87,-1.59 -2.97,-5.31 z"
     sodipodi:nodetypes="ccccc"
     style="fill:#3c5366;fill-opacity:1;stroke:#23557e;stroke-opacity:1" /><path
     id="shape17"
     fill="none"
     stroke="#000000"
     stroke-width="0.6"
     stroke-linecap="square"
     stroke-linejoin="bevel"
     d="m 9.3032334,94.280531 c -1.126246,1.84688 -1.388238,3.95384 -1.98,5.917499 l 5.8949996,0.72 c 0.07448,-1.055119 0.48888,-2.034689 1.102501,-2.969999 -0.15,-0.03 -1.822501,-1.2525 -5.0175006,-3.6675 z"
     sodipodi:nodetypes="ccccc"
     style="fill:#3c5366;fill-opacity:1;stroke:#23557e;stroke-opacity:1" /><path
     id="shape18"
     fill="none"
     stroke="#000000"
     stroke-width="0.6"
     stroke-linecap="square"
     stroke-linejoin="bevel"
     d="m 7.0532304,102.02802 c -0.387816,2.03178 -0.2374377,3.69667 -0.03,5.2125 l 5.2199956,0.045 c 0.10325,-1.47769 0.23739,-2.9631 0.5775,-4.5 0.105,-0.165 -1.8175,-0.4175 -5.7674956,-0.7575 z"
     sodipodi:nodetypes="ccccc"
     style="fill:#3c5366;fill-opacity:1;stroke:#23557e;stroke-opacity:1" /><path
     id="shape19"
     fill="none"
     stroke="#000000"
     stroke-width="0.6"
     stroke-linecap="square"
     stroke-linejoin="bevel"
     d="m 7.2632274,109.04803 0.33,2.99999 4.5899996,-0.225 -0.0675,-2.91749 c 0.255,-0.055 -1.3625,-0.007 -4.8524996,0.1425 z"
     sodipodi:nodetypes="ccccc"
     style="fill:#3c5366;fill-opacity:1;stroke:#23557e;stroke-opacity:1" /><path
     id="shape20"
     fill="none"
     stroke="#000000"
     stroke-width="0.6"
     stroke-linecap="square"
     stroke-linejoin="bevel"
     d="m 65.770725,83.990531 c 2.34451,-0.142449 3.72709,-0.429187 4.8825,-0.75 l 0.7275,5.955 c -1.33846,0.61654 -3.21141,0.69859 -5.01,0.855 0,0 -0.2,-2.02 -0.6,-6.06 z"
     sodipodi:nodetypes="ccccc"
     style="fill:#3c5366;fill-opacity:1;stroke:#23557e;stroke-opacity:1" /><path
     id="shape21"
     fill="none"
     stroke="#000000"
     stroke-width="0.6"
     stroke-linecap="square"
     stroke-linejoin="bevel"
     d="m 72.318225,82.933031 0.8175,5.76 c 1.62884,-0.50027 3.22917,-1.04805 4.68,-1.845 l -1.155,-5.115004 c -0.20111,-0.0648 -1.64861,0.3352 -4.3425,1.200004 z"
     sodipodi:nodetypes="ccccc"
     style="fill:#3c5366;fill-opacity:1;stroke:#23557e;stroke-opacity:1" /><path
     id="shape22"
     fill="none"
     stroke="#000000"
     stroke-width="0.6"
     stroke-linecap="square"
     stroke-linejoin="bevel"
     d="m 78.348225,81.148031 1.2225,4.6725 c 2.09788,-1.26228 4.26049,-2.4868 5.6625,-4.155 l -1.9875,-3.315 c -0.82329,0.893012 -2.45579,1.82551 -4.8975,2.7975 z"
     sodipodi:nodetypes="ccccc"
     style="fill:#3c5366;fill-opacity:1;stroke:#23557e;stroke-opacity:1" /><path
     id="shape23"
     fill="none"
     stroke="#000000"
     stroke-width="0.6"
     stroke-linecap="square"
     stroke-linejoin="bevel"
     d="m 84.918225,77.323024 1.8375,2.8875 c 1.30237,-1.25263 2.48339,-2.62661 3.3675,-4.2975 l -2.265,-1.41 c 0.05975,0.231515 -0.92025,1.17151 -2.94,2.82 z"
     sodipodi:nodetypes="ccccc"
     style="fill:#3c5366;fill-opacity:1;stroke:#23557e;stroke-opacity:1" /><path
     id="shape24"
     fill="none"
     stroke="#000000"
     stroke-width="0.6"
     stroke-linecap="square"
     stroke-linejoin="bevel"
     d="m 88.945725,73.340524 c 0.54,0.14 1.235,0.505 2.085,1.095 0.62747,-1.06086 1.61445,-1.87429 1.695,-3.555 l -2.07,-0.84 c 0.17152,0.303698 -0.39848,1.4037 -1.71,3.3 z"
     sodipodi:nodetypes="ccccc"
     style="fill:#3c5366;fill-opacity:1;stroke:#23557e;stroke-opacity:1" /><path
     id="shape25"
     fill="none"
     stroke="#000000"
     stroke-width="0.6"
     stroke-linecap="square"
     stroke-linejoin="bevel"
     d="m 74.485735,43.56553 -0.045,15.885047 4.86,-0.045 0.09,-15.907547 c 0,-0.105 -1.635,-0.0825 -4.905,0.0675 z"
     sodipodi:nodetypes="ccccc"
     style="fill:#fef9ec;fill-opacity:1;stroke:#23557e;stroke-opacity:1" /><path
     id="shape04"
     fill="none"
     stroke="#000000"
     stroke-width="0.6"
     stroke-linecap="square"
     stroke-linejoin="bevel"
     d="m 13.247404,43.580687 -0.045,15.885047 4.860001,-0.045 0.09,-15.907547 c 0,-0.105 -1.635,-0.0825 -4.905001,0.0675 z"
     sodipodi:nodetypes="ccccc"
     style="fill:#fef9ec;fill-opacity:1;stroke:#23557e;stroke-opacity:1" /><path
     id="shape26"
     fill="none"
     stroke="#000000"
     stroke-width="0.6"
     stroke-linecap="square"
     stroke-linejoin="bevel"
     d="m 14.830735,43.400529 0.06,-12.54 c 0.255585,-1.83247 0.01071,-2.992558 3,-3.059999 l 55.92,0.719999 c 3.0426,-0.252202 4.1225,1.15636 4.05,3.54 l 0.03,11.49 c -2.4808,-0.2081 -0.85,-0.05 -1.65,-0.09 l 0.21,-10.26 c 0.2778,-2.46352 -1.0592,-3.41519 -3.6,-3.24 l -54.18,-0.36 c -1.08414,-0.07373 -2.58598,0.24794 -2.31,1.83 v 11.88 c 0.38,-0.14 -0.13,-0.11 -1.53,0.09 z"
     sodipodi:nodetypes="ccccccccccccc"
     style="fill:#fef9ec;fill-opacity:1;stroke:#23557e;stroke-opacity:1" /><rect
     id="shape27"
     fill="none"
     stroke="#000000"
     stroke-width="0.6"
     stroke-linecap="square"
     stroke-linejoin="bevel"
     width="25.68"
     height="19.26"
     rx="7.8600001"
     ry="7.8600001"
     x="34.240734"
     y="79.970535"
     style="fill:#fef9ec;fill-opacity:1;stroke:#23557e;stroke-opacity:1" /><rect
     id="shape05"
     fill="none"
     stroke="#000000"
     stroke-width="0.6"
     stroke-linecap="square"
     stroke-linejoin="bevel"
     width="22.666157"
     height="16.59"
     rx="6.9375386"
     ry="6.7703738"
     x="35.777073"
     y="81.260529"
     style="stroke:#23557e;stroke-opacity:1" /><path
     id="shape8"
     fill="none"
     stroke="#000000"
     stroke-width="0.6"
     stroke-linecap="square"
     stroke-linejoin="bevel"
     d="m 30.250725,105.17052 c 0.642292,7.4818 6.15497,12.0467 15.435,13.77 10.342,-0.273 16.5065,-4.55846 17.73,-13.59 0,0.09 -11.055,0.03 -33.165,-0.18 z"
     sodipodi:nodetypes="cccc"
     style="fill:#3c5366;fill-opacity:1;stroke:#23557e;stroke-opacity:1" /><text
     xml:space="preserve"
     style="font-style:normal;font-variant:normal;font-weight:normal;font-stretch:normal;font-size:22px;font-family:Andika;-inkscape-font-specification:'Andika, Normal';font-variant-ligatures:normal;font-variant-caps:normal;font-variant-numeric:normal;font-variant-east-asian:normal;fill:#23557e;fill-opacity:1;stroke-width:0.297;stroke-dasharray:none"
     x="87.460037"
     y="0.78954005"
     id="text1"
     transform="rotate(18.215946)"><tspan
       sodipodi:role="line"
       id="tspan1"
       style="font-style:normal;font-variant:normal;font-weight:normal;font-stretch:normal;font-size:22px;font-family:Andika;-inkscape-font-specification:'Andika, Normal';font-variant-ligatures:normal;font-variant-caps:normal;font-variant-numeric:normal;font-variant-east-asian:normal;stroke-width:0.297"
       x="87.460037"
       y="0.78954005">?</tspan></text><text
     xml:space="preserve"
     style="font-style:normal;font-variant:normal;font-weight:normal;font-stretch:normal;font-size:20px;font-family:Andika;-inkscape-font-specification:'Andika, Normal';font-variant-ligatures:normal;font-variant-caps:normal;font-variant-numeric:normal;font-variant-east-asian:normal;fill:#23557e;fill-opacity:1;stroke-width:0.297;stroke-dasharray:none"
     x="-7.1376371"
     y="33.573318"
     id="text2"
     transform="rotate(-17.293438)"><tspan
       sodipodi:role="line"
       id="tspan2"
       style="font-style:normal;font-variant:normal;font-weight:normal;font-stretch:normal;font-size:20px;font-family:Andika;-inkscape-font-specification:'Andika, Normal';font-variant-ligatures:normal;font-variant-caps:normal;font-variant-numeric:normal;font-variant-east-asian:normal;stroke-width:0.297"
       x="-7.1376371"
       y="33.573318">?</tspan></text><text
     xml:space="preserve"
     style="font-style:normal;font-variant:normal;font-weight:normal;font-stretch:normal;font-size:20px;font-family:Andika;-inkscape-font-specification:'Andika, Normal';font-variant-ligatures:normal;font-variant-caps:normal;font-variant-numeric:normal;font-variant-east-asian:normal;fill:#23557e;fill-opacity:1;stroke-width:0.75046;stroke-dasharray:none"
     x="33.181393"
     y="18.306852"
     id="text3"
     transform="matrix(0.94313205,-0.08327166,0.09289231,1.0520952,0,0)"><tspan
       sodipodi:role="line"
       id="tspan3"
       style="font-style:normal;font-variant:normal;font-weight:normal;font-stretch:normal;font-size:20px;font-family:Andika;-inkscape-font-specification:'Andika, Normal';font-variant-ligatures:normal;font-variant-caps:normal;font-variant-numeric:normal;font-variant-east-asian:normal;stroke-width:0.75046"
       x="33.181393"
       y="18.306852">?</tspan></text></svg>
