<?xml version="1.0" encoding="UTF-8" standalone="no"?>
<!-- Created using Krita: https://krita.org -->

<svg
   width="101.04254pt"
   height="127.61994pt"
   viewBox="0 0 101.04254 127.61994"
   version="1.1"
   id="svg38"
   sodipodi:docname="roboter_with_wrench.svg"
   inkscape:version="1.3.1 (91b66b0, 2023-11-16)"
   xml:space="preserve"
   xmlns:inkscape="http://www.inkscape.org/namespaces/inkscape"
   xmlns:sodipodi="http://sodipodi.sourceforge.net/DTD/sodipodi-0.dtd"
   xmlns="http://www.w3.org/2000/svg"
   xmlns:svg="http://www.w3.org/2000/svg"><sodipodi:namedview
     id="namedview40"
     pagecolor="#2d2e3a"
     bordercolor="#000000"
     borderopacity="0.25"
     inkscape:showpageshadow="2"
     inkscape:pageopacity="0"
     inkscape:pagecheckerboard="0"
     inkscape:deskcolor="#d1d1d1"
     inkscape:document-units="pt"
     showgrid="false"
     inkscape:zoom="3.1372071"
     inkscape:cx="47.813229"
     inkscape:cy="72.994863"
     inkscape:window-width="1879"
     inkscape:window-height="1014"
     inkscape:window-x="41"
     inkscape:window-y="0"
     inkscape:window-maximized="1"
     inkscape:current-layer="layer1"
     showguides="false" /><defs
     id="defs2" /><rect
     id="shape0"
     fill="none"
     stroke="#000000"
     stroke-width="0.6"
     stroke-linecap="square"
     stroke-linejoin="bevel"
     width="51.599129"
     height="35.670876"
     rx="3.2859695"
     ry="3.2859695"
     x="16.548077"
     y="8.1762753"
     style="fill:#fef9ec;fill-opacity:1;stroke:#23557e;stroke-opacity:1" /><rect
     id="shape06"
     fill="none"
     stroke="#000000"
     stroke-width="0.6"
     stroke-linecap="square"
     stroke-linejoin="bevel"
     width="47.369995"
     height="31.589996"
     rx="3.0166471"
     ry="2.9100428"
     x="18.661068"
     y="10.349977"
     style="fill:#3c5366;fill-opacity:1;stroke:#23557e;stroke-opacity:1" /><rect
     id="shape1"
     fill="none"
     stroke="#000000"
     stroke-width="0.6"
     stroke-linecap="square"
     stroke-linejoin="bevel"
     width="14.64"
     height="14.4"
     rx="3.7813377"
     ry="3.7813377"
     x="23.495897"
     y="18.454134"
     style="fill:#fef9ec;fill-opacity:1;stroke:#23557e;stroke-opacity:1" /><rect
     id="shape01"
     fill="none"
     stroke="#000000"
     stroke-width="0.6"
     stroke-linecap="square"
     stroke-linejoin="bevel"
     width="14.64"
     height="14.4"
     rx="3.7813377"
     ry="3.7813377"
     x="46.493649"
     y="18.53887"
     style="fill:#fef9ec;fill-opacity:1;stroke:#23557e;stroke-opacity:1" /><path
     id="shape2"
     fill="none"
     stroke="#000000"
     stroke-width="0.6"
     stroke-linecap="square"
     stroke-linejoin="bevel"
     d="m 29.427358,20.605068 1.48278,0.06 c 2.18426,0 3.51996,1.72475 3.51996,3.96335 v 2.35821 c 0,2.2386 -1.5007,3.69334 -3.68496,3.69334 h -1.12278 c -2.18426,0 -4.01496,-1.54474 -4.01496,-3.78334 l 0.01615,-2.30942 c 0,-0.5793 0.228591,-1.90426 0.425374,-2.3961 0.774208,4.15483 6.177578,1.74396 3.378438,-1.58604 z"
     sodipodi:nodetypes="cccccccccc"
     style="fill:#3c5366;fill-opacity:1;stroke:#23557e;stroke-opacity:1" /><path
     id="shape02"
     fill="none"
     stroke="#000000"
     stroke-width="0.6"
     stroke-linecap="square"
     stroke-linejoin="bevel"
     d="m 52.438568,20.286724 1.48278,0.06 c 2.18426,0 3.51996,1.72475 3.51996,3.96335 v 2.35821 c 0,2.2386 -1.5007,3.69334 -3.68496,3.69334 h -1.12278 c -2.18426,0 -4.01496,-1.54474 -4.01496,-3.78334 l 0.01615,-2.30942 c 0,-0.5793 0.228591,-1.90426 0.425374,-2.3961 0.774208,4.15483 6.177578,1.74396 3.378438,-1.58604 z"
     sodipodi:nodetypes="cccccccccc"
     style="fill:#3c5366;fill-opacity:1;stroke:#23557e;stroke-opacity:1" /><path
     id="shape3"
     fill="none"
     stroke="#000000"
     stroke-width="0.6"
     stroke-linecap="square"
     stroke-linejoin="bevel"
     d="m 47.116068,43.919975 -0.405,3.600004 h 14.22 l 2.79,28.889986 -41.49,-0.18 3.33,-28.799996 11.07,0.09 0.315,-3.69 c 0,0 3.39,0.03 10.17,0.09001 z"
     sodipodi:nodetypes="ccccccccc"
     style="fill:#fef9ec;fill-opacity:1;stroke:#23557e;stroke-opacity:1" /><path
     id="shape4"
     fill="none"
     stroke="#000000"
     stroke-width="0.6"
     stroke-linecap="square"
     stroke-linejoin="bevel"
     d="m 27.001078,49.139976 -2.79,25.379999 37.2,0.06 -1.8,-25.259996 c -0.04,0.2 -8.80323,0.139999 -32.61,-0.180003 z"
     sodipodi:nodetypes="ccccc"
     style="fill:#3c5366;fill-opacity:1;stroke:#23557e;stroke-opacity:1" /><path
     id="shape5"
     fill="none"
     stroke="#000000"
     stroke-width="0.6"
     stroke-linecap="square"
     stroke-linejoin="bevel"
     d="m 61.651068,54.899973 c 12.1435,-1.7628 21.4056,-5.7612 24.3,-14.7 -4.2788,-4.68508 -0.9332,-8.43177 2.4,-12.18 0.768,0.876805 1.6526,1.70696 2.13,2.7 -4.0064,4.0093 -1.9321,5.34031 2.1,6.06 1.1398,-2.10775 1.8169,-3.12752 2.9775,-3.81 1.063195,0.43868 2.518995,0.6934 3.592495,1.65 -1.713,3.28165 -3.137995,6.7329 -8.099995,8.1 -5.3414,14.969 -19.43393,20.4657 -28.26,21.51 -0.12,0.34 -0.5,-2.77 -1.14,-9.33 z"
     sodipodi:nodetypes="cccccccccc"
     style="fill:#fef9ec;fill-opacity:1;stroke:#23557e;stroke-opacity:1" /><path
     id="shape6"
     fill="none"
     stroke="#000000"
     stroke-width="0.6"
     stroke-linecap="square"
     stroke-linejoin="bevel"
     d="m 24.631121,53.339976 c -20.8916204,3.32832 -25.7319404,15.7838 -22.2000504,32.999999 -4.32559,5.7868 -0.83816,7.7086 -0.22499,9.24 0.95356,-0.8679 2.00192,-1.5462 2.655,-3.015 l -0.45,-2.655 c 3.6890196,-1.0434 4.1586896,-0.1552 6.0750404,-0.135 l -1.4850408,2.97 c 0.68135,1.4801 1.7461408,2.2893 2.7300408,3.24 1.4874,-3.0292 5.3671,-6.3974 -1.71004,-11.415 -0.2513808,-8.9816 -0.1581308,-18.165599 13.88994,-21.989999 0,0 0.24,-3.08 0.7201,-9.24 z"
     sodipodi:nodetypes="ccccccccccc"
     style="fill:#fef9ec;fill-opacity:1;stroke:#23557e;stroke-opacity:1" /><path
     id="shape7"
     fill="none"
     stroke="#000000"
     stroke-width="0.6"
     stroke-linecap="square"
     stroke-linejoin="bevel"
     d="m 24.767977,76.246845 c 0.242,3.29979 0.257,5.99763 2.1506,8.93062 l -11.3325,18.089985 c -2.1426,1.1313 -4.67391,2.4307 -4.98001,6.9 -2.9237908,-0.7377 -5.9421804,1.6935 -8.9849904,4.9425 l 14.9400004,9.84 c 3.0649,-5.149 2.3356,-7.3893 1.92,-9.87 4.0577,-1.3857 3.9933,-4.6222 4.26,-7.71 l 11.13,-16.710005 c 5.517,3.0238 10.141,3.1699 14.22,1.56 l 0.525,17.205005 c -2.2345,3.3278 -2.6555,6.3923 -1.17,9.18 -2.6631,2.0663 -3.6983,5.2178 -4.215,8.715 l 17.88,-0.06 c 0.1148,-3.569 -0.4433,-6.9218 -3.66,-9.42 1.938,-2.7441 1.4281,-5.6559 -1.0125,-8.7 l 0.3975,-21.840005 c 2.1817,-2.43385 4.2369,-5.09014 4.455,-10.97998 -0.0038,0.0712 -12.1781,0.0469 -36.5231,-0.0731 z"
     sodipodi:nodetypes="ccccccccccccccccccc"
     style="fill:#fef9ec;fill-opacity:1;stroke:#23557e;stroke-opacity:1" /><path
     id="shape9"
     fill="none"
     stroke="#000000"
     stroke-width="0.6"
     stroke-linecap="square"
     stroke-linejoin="bevel"
     d="m 49.936068,108.04497 c 1.46907,-0.3111 3.28751,-0.642 4.995,-0.03 l -0.0975,-18.555005 c -1.33694,1.01133 -2.96806,1.84616 -4.905,2.4975 0.21,0 0.2125,5.3625 0.0075,16.087505 z"
     sodipodi:nodetypes="ccccc"
     style="fill:#3c5366;fill-opacity:1;stroke:#23557e;stroke-opacity:1" /><ellipse
     id="shape10"
     rx="4.1624999"
     ry="4.5675001"
     cx="52.583576"
     cy="114.41248"
     fill="none"
     stroke="#000000"
     stroke-width="0.6"
     stroke-linecap="square"
     stroke-linejoin="bevel"
     style="fill:#3c5366;fill-opacity:1;stroke:#23557e;stroke-opacity:1" /><ellipse
     id="shape03"
     transform="rotate(32.897732)"
     rx="4.1624999"
     ry="4.5675001"
     cx="73.428413"
     cy="82.8022"
     fill="none"
     stroke="#000000"
     stroke-width="0.6"
     stroke-linecap="square"
     stroke-linejoin="bevel"
     style="fill:#3c5366;fill-opacity:1;stroke:#23557e;stroke-opacity:1" /><path
     id="shape11"
     fill="none"
     stroke="#000000"
     stroke-width="0.6"
     stroke-linecap="square"
     stroke-linejoin="bevel"
     d="m 45.113568,125.81997 c 0.900342,-2.1535 1.77591,-4.7149 3.7125,-6.12 3.51998,1.65753 5.59808,1.11651 7.8075,-0.27 2.1401,1.91456 2.4544,4.01592 2.5425,6.165 0.045,0.195 -4.6425,0.27 -14.0625,0.225 z"
     sodipodi:nodetypes="ccccc"
     style="fill:#3c5366;fill-opacity:1;stroke:#23557e;stroke-opacity:1" /><path
     id="shape12"
     fill="none"
     stroke="#000000"
     stroke-width="0.6"
     stroke-linecap="square"
     stroke-linejoin="bevel"
     d="m 4.5310676,114.98997 c 2.8044696,-2.54339 4.6066396,-3.64967 6.2100004,-2.94001 1.30978,2.13718 2.05812,3.53942 6.15,3.69001 0.8138,2.70982 -0.4553,5.01399 -0.78,6.89998 -2.92135,-2.12278 -6.7813508,-4.67278 -11.5800004,-7.64998 z"
     sodipodi:nodetypes="ccccc"
     style="fill:#3c5366;fill-opacity:1;stroke:#23557e;stroke-opacity:1" /><path
     id="shape13"
     fill="none"
     stroke="#000000"
     stroke-width="0.6"
     stroke-linecap="square"
     stroke-linejoin="bevel"
     d="m 17.877328,103.04248 10.5637,-16.237505 c 1.2302,1.45914 2.5704,2.36815 3.96,3.03 l -10.36495,15.795005 c -1.19846,-1.3131 -2.58471,-2.1756 -4.15875,-2.5875 z"
     sodipodi:nodetypes="ccccc"
     style="fill:#3c5366;fill-opacity:1;stroke:#23557e;stroke-opacity:1" /><path
     id="shape14"
     fill="none"
     stroke="#000000"
     stroke-width="0.6"
     stroke-linecap="square"
     stroke-linejoin="bevel"
     d="m 24.541078,54.779976 c -1.47415,0.252931 -3.00521,0.555182 -5.07,1.32 l 1.02,6.015 c 1.15559,-0.61038 2.3461,-0.98954 3.66,-0.885 -0.14,0.24 -0.01,-1.91 0.39,-6.45 z"
     sodipodi:nodetypes="ccccc"
     style="fill:#3c5366;fill-opacity:1;stroke:#23557e;stroke-opacity:1" /><path
     id="shape15"
     fill="none"
     stroke="#000000"
     stroke-width="0.6"
     stroke-linecap="square"
     stroke-linejoin="bevel"
     d="m 17.783578,56.707476 c -1.98183,0.585299 -3.88258,1.4341 -5.625,2.7975 l 2.91,5.45625 c 1.31951,-0.87169 2.64452,-1.71036 3.99375,-2.40375 0.0675,0.3 -0.35875,-1.65 -1.27875,-5.85 z"
     sodipodi:nodetypes="ccccc"
     style="fill:#3c5366;fill-opacity:1;stroke:#23557e;stroke-opacity:1" /><path
     id="shape16"
     fill="none"
     stroke="#000000"
     stroke-width="0.6"
     stroke-linecap="square"
     stroke-linejoin="bevel"
     d="m 10.861078,60.809976 c -1.8756308,0.881523 -3.4012718,2.15192 -4.2000008,4.23 l 4.8225008,3.885 c 0.71426,-0.86435 0.61577,-1.40514 2.3475,-2.805 0.12,0.18 -0.87,-1.59 -2.97,-5.31 z"
     sodipodi:nodetypes="ccccc"
     style="fill:#3c5366;fill-opacity:1;stroke:#23557e;stroke-opacity:1" /><path
     id="shape17"
     fill="none"
     stroke="#000000"
     stroke-width="0.6"
     stroke-linecap="square"
     stroke-linejoin="bevel"
     d="m 5.4235766,66.779976 c -1.126246,1.84688 -1.388238,3.95384 -1.98,5.917499 l 5.8949996,0.72 c 0.07448,-1.055119 0.48888,-2.034689 1.1025008,-2.969999 -0.15,-0.03 -1.8225008,-1.2525 -5.0175004,-3.6675 z"
     sodipodi:nodetypes="ccccc"
     style="fill:#3c5366;fill-opacity:1;stroke:#23557e;stroke-opacity:1" /><path
     id="shape18"
     fill="none"
     stroke="#000000"
     stroke-width="0.6"
     stroke-linecap="square"
     stroke-linejoin="bevel"
     d="m 3.1735736,74.527465 c -0.387816,2.03178 -0.2374377,3.69667 -0.03,5.2125 l 5.2199956,0.045 c 0.10325,-1.47769 0.23739,-2.9631 0.5775,-4.5 0.105,-0.165 -1.8175,-0.4175 -5.7674956,-0.7575 z"
     sodipodi:nodetypes="ccccc"
     style="fill:#3c5366;fill-opacity:1;stroke:#23557e;stroke-opacity:1" /><path
     id="shape19"
     fill="none"
     stroke="#000000"
     stroke-width="0.6"
     stroke-linecap="square"
     stroke-linejoin="bevel"
     d="m 3.3835706,81.547475 0.33,2.99999 4.5899996,-0.225 -0.0675,-2.91749 c 0.255,-0.055 -1.3625,-0.007 -4.8524996,0.1425 z"
     sodipodi:nodetypes="ccccc"
     style="fill:#3c5366;fill-opacity:1;stroke:#23557e;stroke-opacity:1" /><path
     id="shape20"
     fill="none"
     stroke="#000000"
     stroke-width="0.6"
     stroke-linecap="square"
     stroke-linejoin="bevel"
     d="m 61.891068,56.489976 c 2.34451,-0.142449 3.72709,-0.429187 4.8825,-0.75 l 0.7275,5.955 c -1.33846,0.61654 -3.21141,0.69859 -5.01,0.855 0,0 -0.2,-2.02 -0.6,-6.06 z"
     sodipodi:nodetypes="ccccc"
     style="fill:#3c5366;fill-opacity:1;stroke:#23557e;stroke-opacity:1" /><path
     id="shape21"
     fill="none"
     stroke="#000000"
     stroke-width="0.6"
     stroke-linecap="square"
     stroke-linejoin="bevel"
     d="m 68.438568,55.432476 0.8175,5.76 c 1.62884,-0.50027 3.22917,-1.04805 4.68,-1.845 l -1.155,-5.115004 c -0.20111,-0.0648 -1.64861,0.3352 -4.3425,1.200004 z"
     sodipodi:nodetypes="ccccc"
     style="fill:#3c5366;fill-opacity:1;stroke:#23557e;stroke-opacity:1" /><path
     id="shape22"
     fill="none"
     stroke="#000000"
     stroke-width="0.6"
     stroke-linecap="square"
     stroke-linejoin="bevel"
     d="m 74.468568,53.647476 1.2225,4.6725 c 2.09788,-1.26228 4.26049,-2.4868 5.6625,-4.155 l -1.9875,-3.315 c -0.82329,0.893012 -2.45579,1.82551 -4.8975,2.7975 z"
     sodipodi:nodetypes="ccccc"
     style="fill:#3c5366;fill-opacity:1;stroke:#23557e;stroke-opacity:1" /><path
     id="shape23"
     fill="none"
     stroke="#000000"
     stroke-width="0.6"
     stroke-linecap="square"
     stroke-linejoin="bevel"
     d="m 81.038568,49.822469 1.8375,2.8875 c 1.30237,-1.25263 2.48339,-2.62661 3.3675,-4.2975 l -2.265,-1.41 c 0.05975,0.231515 -0.92025,1.17151 -2.94,2.82 z"
     sodipodi:nodetypes="ccccc"
     style="fill:#3c5366;fill-opacity:1;stroke:#23557e;stroke-opacity:1" /><path
     id="shape24"
     fill="none"
     stroke="#000000"
     stroke-width="0.6"
     stroke-linecap="square"
     stroke-linejoin="bevel"
     d="m 85.066068,45.839969 c 0.54,0.14 1.235,0.505 2.085,1.095 0.62747,-1.06086 1.61445,-1.87429 1.695,-3.555 l -2.07,-0.84 c 0.17152,0.303698 -0.39848,1.4037 -1.71,3.3 z"
     sodipodi:nodetypes="ccccc"
     style="fill:#3c5366;fill-opacity:1;stroke:#23557e;stroke-opacity:1" /><path
     id="shape25"
     fill="none"
     stroke="#000000"
     stroke-width="0.6"
     stroke-linecap="square"
     stroke-linejoin="bevel"
     d="m 70.606078,16.064975 -0.045,15.885047 4.86,-0.045 0.09,-15.907547 c 0,-0.105 -1.635,-0.0825 -4.905,0.0675 z"
     sodipodi:nodetypes="ccccc"
     style="fill:#fef9ec;fill-opacity:1;stroke:#23557e;stroke-opacity:1" /><path
     id="shape04"
     fill="none"
     stroke="#000000"
     stroke-width="0.6"
     stroke-linecap="square"
     stroke-linejoin="bevel"
     d="m 9.3677472,16.080132 -0.045,15.885047 4.8600008,-0.045 0.09,-15.907547 c 0,-0.105 -1.635,-0.0825 -4.9050008,0.0675 z"
     sodipodi:nodetypes="ccccc"
     style="fill:#fef9ec;fill-opacity:1;stroke:#23557e;stroke-opacity:1" /><path
     id="shape26"
     fill="none"
     stroke="#000000"
     stroke-width="0.6"
     stroke-linecap="square"
     stroke-linejoin="bevel"
     d="m 10.951078,15.899974 0.06,-12.5399999 c 0.255585,-1.83247 0.01071,-2.99255795 3,-3.05999895 l 55.92,0.71999895 c 3.0426,-0.25220195 4.1225,1.15636 4.05,3.54 l 0.03,11.4899999 c -2.4808,-0.2081 -0.85,-0.05 -1.65,-0.09 l 0.21,-10.2599999 c 0.2778,-2.46352 -1.0592,-3.41519 -3.6,-3.24 l -54.18,-0.36 c -1.08414,-0.07373 -2.58598,0.24794 -2.31,1.83 V 15.809974 c 0.38,-0.14 -0.13,-0.11 -1.53,0.09 z"
     sodipodi:nodetypes="ccccccccccccc"
     style="fill:#fef9ec;fill-opacity:1;stroke:#23557e;stroke-opacity:1" /><rect
     id="shape27"
     fill="none"
     stroke="#000000"
     stroke-width="0.6"
     stroke-linecap="square"
     stroke-linejoin="bevel"
     width="25.68"
     height="19.26"
     rx="7.8600001"
     ry="7.8600001"
     x="30.361076"
     y="52.469982"
     style="fill:#fef9ec;fill-opacity:1;stroke:#23557e;stroke-opacity:1" /><rect
     id="shape05"
     fill="none"
     stroke="#000000"
     stroke-width="0.6"
     stroke-linecap="square"
     stroke-linejoin="bevel"
     width="22.666157"
     height="16.59"
     rx="6.9375386"
     ry="6.7703738"
     x="31.897415"
     y="53.759975"
     style="stroke:#23557e;stroke-opacity:1" /><path
     id="shape8"
     fill="none"
     stroke="#000000"
     stroke-width="0.6"
     stroke-linecap="square"
     stroke-linejoin="bevel"
     d="m 26.371068,77.669965 c 0.642292,7.4818 6.15497,12.0467 15.435,13.77 10.342,-0.273 16.5065,-4.55846 17.73,-13.59 0,0.09 -11.055,0.03 -33.165,-0.18 z"
     sodipodi:nodetypes="cccc"
     style="fill:#3c5366;fill-opacity:1;stroke:#23557e;stroke-opacity:1" /><g
     inkscape:label="Layer 1"
     id="layer1"
     transform="matrix(-0.1998045,0.30227773,-0.30227773,-0.1998045,120.59617,24.219689)"><path
       style="fill:#8e8e8e;fill-opacity:1;stroke-width:0.132089"
       d="m 33.353584,105.09878 c -1.283765,-0.16041 -3.414618,-0.62583 -4.202778,-0.91798 -1.908957,-0.70758 -2.7186,-2.2847 -1.9957,-3.88745 0.198835,-0.440851 1.460682,-1.789391 4.884404,-5.219981 2.538969,-2.54407 4.616307,-4.71312 4.616307,-4.82011 0,-0.25566 -5.420682,-5.67854 -5.67624,-5.67854 -0.108292,0 -2.30811,2.10742 -4.888484,4.68315 -3.15552,3.14984 -4.85238,4.74999 -5.182684,4.88731 -1.091663,0.45381 -2.341972,0.1227 -3.164274,-0.83797 -1.167788,-1.3643 -1.9511,-5.98003 -1.570006,-9.25137 0.504621,-4.33167 2.266997,-7.95029 5.414748,-11.1179 3.242557,-3.26301 7.16357,-5.10634 11.78643,-5.54099 2.593711,-0.24386 5.782747,0.16776 8.086936,1.04383 l 0.645611,0.24546 20.059392,-20.05714 c 11.03266,-11.03142 20.05939,-20.1342 20.05939,-20.22838 0,-0.0942 -0.12123,-0.51617 -0.2694,-0.93775 -1.5933,-4.53321 -1.27223,-9.805 0.87073,-14.29681 2.04499,-4.2864396 5.95991,-7.8947096 10.36212,-9.5504396 2.25403,-0.84778 3.77782,-1.11434 6.40629,-1.12068 2.440194,-0.006 3.713064,0.17318 5.738834,0.80729 1.70308,0.53311 2.64062,1.55314 2.64465,2.87738 0.003,1.13359 -0.35849,1.57947 -5.19976,6.4056096 -2.51386,2.506 -4.570664,4.64533 -4.570664,4.75406 0,0.25679 5.418174,5.68171 5.674634,5.68171 0.1074,0 2.33694,-2.13416 4.95453,-4.74258 4.00348,-3.98946 4.84315,-4.76544 5.28761,-4.88657 0.75711,-0.20632 1.3755,-0.17485 1.98247,0.10089 1.0536,0.47864 1.64939,1.5107 2.18272,3.78105 1.49767,6.37544 -0.31316,12.65248 -5.01502,17.38399 -3.23632,3.25674 -7.08848,5.0773 -11.72581,5.5417 -2.580614,0.25844 -4.868424,-0.0378 -8.305254,-1.07558 l -0.53914,-0.16279 -15.57576,15.58139 c -8.56667,8.56977 -17.59307,17.61479 -20.05868,20.10006 l -4.48292,4.51866 0.347,1.02798 c 0.69655,2.06352 0.93258,3.59131 0.93258,6.03654 0,2.42874 -0.21298,3.82753 -0.90635,5.95256 -2.083236,6.38472 -7.741387,11.386541 -14.334653,12.671881 -1.082769,0.21108 -4.343626,0.36474 -5.273809,0.24851 z m 4.698559,-3.42484 c 4.551836,-0.81741 8.765624,-4.042961 10.949214,-8.381331 1.280994,-2.54509 1.714797,-4.59536 1.620975,-7.66118 -0.06892,-2.25208 -0.365005,-3.67596 -1.145241,-5.50749 -0.446591,-1.04832 -0.501326,-1.58903 -0.215339,-2.12723 0.104247,-0.19617 9.689414,-9.85225 21.300374,-21.45795 l 21.11084,-21.10127 h 0.63171 c 0.35256,0 0.84828,0.10868 1.12179,0.24593 1.63649,0.82124 4.12909,1.3387 6.44981,1.33896 2.701744,2.7e-4 4.791564,-0.50329 7.183154,-1.73097 1.66032,-0.8523 2.75432,-1.69574 4.24796,-3.27504 1.92264,-2.03291 3.11764,-4.16916 3.82426,-6.83645 0.53172,-2.00711 0.48354,-5.76498 -0.0991,-7.72687 l -0.20173,-0.6793 -4.57918,4.5615 c -3.6376,3.62357 -4.68781,4.5975 -5.10753,4.73657 -0.80267,0.26597 -2.00889,0.21007 -2.71273,-0.1257 -0.81403,-0.38833 -6.874114,-6.46366 -7.199814,-7.21793 -0.13501,-0.31265 -0.23075,-0.87887 -0.2345,-1.38694 -0.0114,-1.54873 0.0833,-1.67419 4.9611,-6.56614 2.407874,-2.4148896 4.350714,-4.4179596 4.317414,-4.4512596 -0.0333,-0.0333 -0.68367,-0.18947 -1.44526,-0.34705 -1.75407,-0.36292 -4.310954,-0.39806 -5.951184,-0.0818 -5.49781,1.06011 -10.20504,5.2429296 -11.91506,10.5876496 -0.62992,1.96884 -0.69015,2.40219 -0.68843,4.95335 0.002,2.70647 0.19965,3.81559 1.02234,5.73191 0.22163,0.51623 0.42968,1.25931 0.46233,1.6513 l 0.0594,0.71269 -21.3132,21.3132 -21.313207,21.3132 h -0.632227 c -0.355815,0 -0.846486,-0.10826 -1.122299,-0.24763 -1.625202,-0.82122 -4.105129,-1.33648 -6.434092,-1.33684 -4.506011,-6.6e-4 -8.321492,1.67527 -11.491771,5.04776 -1.884678,2.0049 -3.07962,4.15311 -3.77932,6.79428 -0.531547,2.00645 -0.483536,5.76498 0.09868,7.72553 l 0.201337,0.67798 4.57957,-4.55889 c 4.995226,-4.97268 4.928033,-4.92152 6.435239,-4.89919 1.336829,0.0198 1.745796,0.31923 5.232001,3.83049 2.097883,2.11296 3.19978,3.32111 3.352542,3.67581 0.13109,0.30438 0.232564,0.89232 0.239376,1.38694 0.0211,1.53197 -0.08249,1.66913 -4.939991,6.54078 -2.393962,2.40093 -4.352659,4.399351 -4.352659,4.440921 0,0.11436 2.04814,0.53326 3.170143,0.64839 1.217746,0.12495 2.888938,0.0431 4.302291,-0.21071 z"
       id="path302"
       sodipodi:nodetypes="ssssssscssssscsscsscscsssssssssscsscssssssssssscsccsssscssssccsscscsccccsscssscssssssssss" /><path
       style="opacity:1;fill:#8e8e8e;fill-opacity:1;stroke:none;stroke-width:4"
       d="m 105.52096,5.0389221 -9.485032,-0.5928143 -8.002995,4.1497006 -3.853294,4.8907186 -1.630238,6.817365 1.333831,5.631737 0.296407,3.705088 -41.64521,40.607784 -7.11377,-1.482034 -9.48503,2.51946 -5.187126,5.631736 -3.260479,7.854791 1.037425,6.520958 1.037425,1.333833 10.818862,-9.781437 4.742516,2.964072 3.556886,4.742513 -10.670659,10.522457 4.001498,2.22305 9.188622,-0.59281 7.706587,-4.742517 3.112275,-6.669161 0.296408,-6.965569 -1.18563,-6.076347 41.348802,-41.200598 5.928143,1.333833 8.002996,-0.889222 5.63173,-3.853294 3.8533,-5.187125 1.33383,-7.113773 -0.74102,-6.817365 -2.22305,-0.296407 -10.37425,10.818862 -7.706589,-8.151198 10.374249,-10.3742509 z"
       id="path456" /></g></svg>
