<?xml version="1.0" encoding="UTF-8" standalone="no"?>
<!-- Created using Krita: https://krita.org -->

<svg
   width="103.04905pt"
   height="127.61995pt"
   viewBox="0 0 103.04905 127.61995"
   version="1.1"
   id="svg38"
   sodipodi:docname="roboter_with_ruler.svg"
   inkscape:version="1.3.1 (91b66b0, 2023-11-16)"
   xml:space="preserve"
   xmlns:inkscape="http://www.inkscape.org/namespaces/inkscape"
   xmlns:sodipodi="http://sodipodi.sourceforge.net/DTD/sodipodi-0.dtd"
   xmlns="http://www.w3.org/2000/svg"
   xmlns:svg="http://www.w3.org/2000/svg"><sodipodi:namedview
     id="namedview40"
     pagecolor="#2d2e3a"
     bordercolor="#000000"
     borderopacity="0.25"
     inkscape:showpageshadow="2"
     inkscape:pageopacity="0"
     inkscape:pagecheckerboard="0"
     inkscape:deskcolor="#d1d1d1"
     inkscape:document-units="pt"
     showgrid="false"
     inkscape:zoom="4.4366808"
     inkscape:cx="47.783469"
     inkscape:cy="148.30907"
     inkscape:window-width="1879"
     inkscape:window-height="1014"
     inkscape:window-x="41"
     inkscape:window-y="0"
     inkscape:window-maximized="1"
     inkscape:current-layer="svg38"
     showguides="false" /><defs
     id="defs2" /><rect
     id="shape0"
     fill="none"
     stroke="#000000"
     stroke-width="0.6"
     stroke-linecap="square"
     stroke-linejoin="bevel"
     width="51.599129"
     height="35.670876"
     rx="3.2859695"
     ry="3.2859695"
     x="16.548077"
     y="8.1762772"
     style="fill:#fef9ec;fill-opacity:1;stroke:#23557e;stroke-opacity:1" /><rect
     id="shape06"
     fill="none"
     stroke="#000000"
     stroke-width="0.6"
     stroke-linecap="square"
     stroke-linejoin="bevel"
     width="47.369995"
     height="31.589996"
     rx="3.0166471"
     ry="2.9100428"
     x="18.661068"
     y="10.349977"
     style="fill:#3c5366;fill-opacity:1;stroke:#23557e;stroke-opacity:1" /><rect
     id="shape1"
     fill="none"
     stroke="#000000"
     stroke-width="0.6"
     stroke-linecap="square"
     stroke-linejoin="bevel"
     width="14.64"
     height="14.4"
     rx="3.7813377"
     ry="3.7813377"
     x="23.495897"
     y="18.454136"
     style="fill:#fef9ec;fill-opacity:1;stroke:#23557e;stroke-opacity:1" /><rect
     id="shape01"
     fill="none"
     stroke="#000000"
     stroke-width="0.6"
     stroke-linecap="square"
     stroke-linejoin="bevel"
     width="14.64"
     height="14.4"
     rx="3.7813377"
     ry="3.7813377"
     x="46.493649"
     y="18.53887"
     style="fill:#fef9ec;fill-opacity:1;stroke:#23557e;stroke-opacity:1" /><path
     id="shape2"
     fill="none"
     stroke="#000000"
     stroke-width="0.6"
     stroke-linecap="square"
     stroke-linejoin="bevel"
     d="m 29.427358,20.605069 1.48278,0.06 c 2.18426,0 3.51996,1.72475 3.51996,3.96335 v 2.35821 c 0,2.2386 -1.5007,3.69334 -3.68496,3.69334 h -1.12278 c -2.18426,0 -4.01496,-1.54474 -4.01496,-3.78334 l 0.01615,-2.30942 c 0,-0.5793 0.228591,-1.90426 0.425374,-2.3961 0.774208,4.15483 6.177578,1.74396 3.378438,-1.58604 z"
     sodipodi:nodetypes="cccccccccc"
     style="fill:#3c5366;fill-opacity:1;stroke:#23557e;stroke-opacity:1" /><path
     id="shape02"
     fill="none"
     stroke="#000000"
     stroke-width="0.6"
     stroke-linecap="square"
     stroke-linejoin="bevel"
     d="m 52.438568,20.286725 1.48278,0.06 c 2.18426,0 3.51996,1.72475 3.51996,3.96335 v 2.35821 c 0,2.2386 -1.5007,3.69334 -3.68496,3.69334 h -1.12278 c -2.18426,0 -4.01496,-1.54474 -4.01496,-3.78334 l 0.01615,-2.30942 c 0,-0.5793 0.228591,-1.90426 0.425374,-2.3961 0.774208,4.15483 6.177578,1.74396 3.378438,-1.58604 z"
     sodipodi:nodetypes="cccccccccc"
     style="fill:#3c5366;fill-opacity:1;stroke:#23557e;stroke-opacity:1" /><path
     id="shape3"
     fill="none"
     stroke="#000000"
     stroke-width="0.6"
     stroke-linecap="square"
     stroke-linejoin="bevel"
     d="m 47.116068,43.919976 -0.405,3.600004 h 14.22 l 2.79,28.88999 -41.49,-0.18 3.33,-28.8 11.07,0.09 0.315,-3.69 c 0,0 3.39,0.03 10.17,0.09001 z"
     sodipodi:nodetypes="ccccccccc"
     style="fill:#fef9ec;fill-opacity:1;stroke:#23557e;stroke-opacity:1" /><path
     id="shape4"
     fill="none"
     stroke="#000000"
     stroke-width="0.6"
     stroke-linecap="square"
     stroke-linejoin="bevel"
     d="m 27.001078,49.139977 -2.79,25.38 37.2,0.06 -1.8,-25.259997 c -0.04,0.2 -8.80323,0.139999 -32.61,-0.180003 z"
     sodipodi:nodetypes="ccccc"
     style="fill:#3c5366;fill-opacity:1;stroke:#23557e;stroke-opacity:1" /><path
     id="shape5"
     fill="none"
     stroke="#000000"
     stroke-width="0.6"
     stroke-linecap="square"
     stroke-linejoin="bevel"
     d="m 61.651068,54.899974 c 12.1435,-1.7628 21.4056,-5.7612 24.3,-14.7 -4.2788,-4.68508 -0.9332,-8.43177 2.4,-12.18 0.768,0.876805 1.6526,1.70696 2.13,2.7 -4.0064,4.0093 -1.9321,5.34031 2.1,6.06 1.1398,-2.10775 1.8169,-3.12752 2.9775,-3.81 1.0632,0.43868 2.519,0.6934 3.5925,1.65 -1.713,3.28165 -3.138,6.7329 -8.1,8.1 -5.3414,14.969 -19.43393,20.4657 -28.26,21.51 -0.12,0.34 -0.5,-2.77 -1.14,-9.33 z"
     sodipodi:nodetypes="cccccccccc"
     style="fill:#fef9ec;fill-opacity:1;stroke:#23557e;stroke-opacity:1" /><path
     id="shape6"
     fill="none"
     stroke="#000000"
     stroke-width="0.6"
     stroke-linecap="square"
     stroke-linejoin="bevel"
     d="m 24.631121,53.339977 c -20.8916204,3.32832 -25.7319404,15.7838 -22.2000504,33 -4.32559,5.7868 -0.83816,7.7086 -0.22499,9.24 0.95356,-0.8679 2.00192,-1.5462 2.655,-3.015 l -0.45,-2.655 c 3.68902,-1.0434 4.15869,-0.1552 6.0750404,-0.135 l -1.4850404,2.97 c 0.68135,1.4801 1.7461404,2.2893 2.7300404,3.24 1.4874,-3.0292 5.3671,-6.3974 -1.71004,-11.415 -0.2513804,-8.9816 -0.1581304,-18.1656 13.88994,-21.99 0,0 0.24,-3.08 0.7201,-9.24 z"
     sodipodi:nodetypes="ccccccccccc"
     style="fill:#fef9ec;fill-opacity:1;stroke:#23557e;stroke-opacity:1" /><path
     id="shape7"
     fill="none"
     stroke="#000000"
     stroke-width="0.6"
     stroke-linecap="square"
     stroke-linejoin="bevel"
     d="m 24.767977,76.246847 c 0.242,3.29979 0.257,5.99763 2.1506,8.93062 l -11.3325,18.089983 c -2.1426,1.1313 -4.67391,2.4307 -4.98001,6.9 -2.9237904,-0.7377 -5.9421804,1.6935 -8.9849904,4.9425 l 14.9400004,9.84 c 3.0649,-5.149 2.3356,-7.3893 1.92,-9.87 4.0577,-1.3857 3.9933,-4.6222 4.26,-7.71 l 11.13,-16.710003 c 5.517,3.0238 10.141,3.1699 14.22,1.56 l 0.525,17.205003 c -2.2345,3.3278 -2.6555,6.3923 -1.17,9.18 -2.6631,2.0663 -3.6983,5.2178 -4.215,8.715 l 17.88,-0.06 c 0.1148,-3.569 -0.4433,-6.9218 -3.66,-9.42 1.938,-2.7441 1.4281,-5.6559 -1.0125,-8.7 l 0.3975,-21.840003 c 2.1817,-2.43385 4.2369,-5.09014 4.455,-10.979982 -0.0038,0.07125 -12.1781,0.04688 -36.5231,-0.07312 z"
     sodipodi:nodetypes="ccccccccccccccccccc"
     style="fill:#fef9ec;fill-opacity:1;stroke:#23557e;stroke-opacity:1" /><path
     id="shape9"
     fill="none"
     stroke="#000000"
     stroke-width="0.6"
     stroke-linecap="square"
     stroke-linejoin="bevel"
     d="m 49.936068,108.04497 c 1.46907,-0.3111 3.28751,-0.642 4.995,-0.03 l -0.0975,-18.555003 c -1.33694,1.01133 -2.96806,1.84616 -4.905,2.4975 0.21,0 0.2125,5.3625 0.0075,16.087503 z"
     sodipodi:nodetypes="ccccc"
     style="fill:#3c5366;fill-opacity:1;stroke:#23557e;stroke-opacity:1" /><ellipse
     id="shape10"
     rx="4.1624999"
     ry="4.5675001"
     cx="52.583576"
     cy="114.41248"
     fill="none"
     stroke="#000000"
     stroke-width="0.6"
     stroke-linecap="square"
     stroke-linejoin="bevel"
     style="fill:#3c5366;fill-opacity:1;stroke:#23557e;stroke-opacity:1" /><ellipse
     id="shape03"
     transform="rotate(32.897732)"
     rx="4.1624999"
     ry="4.5675001"
     cx="73.428413"
     cy="82.8022"
     fill="none"
     stroke="#000000"
     stroke-width="0.6"
     stroke-linecap="square"
     stroke-linejoin="bevel"
     style="fill:#3c5366;fill-opacity:1;stroke:#23557e;stroke-opacity:1" /><path
     id="shape11"
     fill="none"
     stroke="#000000"
     stroke-width="0.6"
     stroke-linecap="square"
     stroke-linejoin="bevel"
     d="m 45.113568,125.81997 c 0.900342,-2.1535 1.77591,-4.7149 3.7125,-6.12 3.51998,1.65753 5.59808,1.11651 7.8075,-0.27 2.1401,1.91456 2.4544,4.01592 2.5425,6.165 0.045,0.195 -4.6425,0.27 -14.0625,0.225 z"
     sodipodi:nodetypes="ccccc"
     style="fill:#3c5366;fill-opacity:1;stroke:#23557e;stroke-opacity:1" /><path
     id="shape12"
     fill="none"
     stroke="#000000"
     stroke-width="0.6"
     stroke-linecap="square"
     stroke-linejoin="bevel"
     d="m 4.5310676,114.98997 c 2.80447,-2.54339 4.60664,-3.64967 6.2100004,-2.94001 1.30978,2.13718 2.05812,3.53942 6.15,3.69001 0.8138,2.70982 -0.4553,5.01399 -0.78,6.89998 -2.92135,-2.12278 -6.7813504,-4.67278 -11.5800004,-7.64998 z"
     sodipodi:nodetypes="ccccc"
     style="fill:#3c5366;fill-opacity:1;stroke:#23557e;stroke-opacity:1" /><path
     id="shape13"
     fill="none"
     stroke="#000000"
     stroke-width="0.6"
     stroke-linecap="square"
     stroke-linejoin="bevel"
     d="m 17.877328,103.04248 10.5637,-16.237503 c 1.2302,1.45914 2.5704,2.36815 3.96,3.03 l -10.36495,15.795003 c -1.19846,-1.3131 -2.58471,-2.1756 -4.15875,-2.5875 z"
     sodipodi:nodetypes="ccccc"
     style="fill:#3c5366;fill-opacity:1;stroke:#23557e;stroke-opacity:1" /><path
     id="shape14"
     fill="none"
     stroke="#000000"
     stroke-width="0.6"
     stroke-linecap="square"
     stroke-linejoin="bevel"
     d="m 24.541078,54.779977 c -1.47415,0.252931 -3.00521,0.555182 -5.07,1.32 l 1.02,6.015 c 1.15559,-0.61038 2.3461,-0.98954 3.66,-0.885 -0.14,0.24 -0.01,-1.91 0.39,-6.45 z"
     sodipodi:nodetypes="ccccc"
     style="fill:#3c5366;fill-opacity:1;stroke:#23557e;stroke-opacity:1" /><path
     id="shape15"
     fill="none"
     stroke="#000000"
     stroke-width="0.6"
     stroke-linecap="square"
     stroke-linejoin="bevel"
     d="m 17.783578,56.707477 c -1.98183,0.585299 -3.88258,1.4341 -5.625,2.7975 l 2.91,5.45625 c 1.31951,-0.87169 2.64452,-1.71036 3.99375,-2.40375 0.0675,0.3 -0.35875,-1.65 -1.27875,-5.85 z"
     sodipodi:nodetypes="ccccc"
     style="fill:#3c5366;fill-opacity:1;stroke:#23557e;stroke-opacity:1" /><path
     id="shape16"
     fill="none"
     stroke="#000000"
     stroke-width="0.6"
     stroke-linecap="square"
     stroke-linejoin="bevel"
     d="m 10.861078,60.809977 c -1.8756304,0.881523 -3.4012714,2.15192 -4.2000004,4.23 l 4.8225004,3.885 c 0.71426,-0.86435 0.61577,-1.40514 2.3475,-2.805 0.12,0.18 -0.87,-1.59 -2.97,-5.31 z"
     sodipodi:nodetypes="ccccc"
     style="fill:#3c5366;fill-opacity:1;stroke:#23557e;stroke-opacity:1" /><path
     id="shape17"
     fill="none"
     stroke="#000000"
     stroke-width="0.6"
     stroke-linecap="square"
     stroke-linejoin="bevel"
     d="m 5.4235766,66.779977 c -1.126246,1.84688 -1.388238,3.95384 -1.98,5.9175 l 5.895,0.72 c 0.07448,-1.05512 0.48888,-2.03469 1.1025004,-2.97 -0.15,-0.03 -1.8225004,-1.2525 -5.0175004,-3.6675 z"
     sodipodi:nodetypes="ccccc"
     style="fill:#3c5366;fill-opacity:1;stroke:#23557e;stroke-opacity:1" /><path
     id="shape18"
     fill="none"
     stroke="#000000"
     stroke-width="0.6"
     stroke-linecap="square"
     stroke-linejoin="bevel"
     d="m 3.1735736,74.527467 c -0.387816,2.03178 -0.2374377,3.69667 -0.03,5.2125 l 5.219996,0.045 c 0.10325,-1.47769 0.23739,-2.9631 0.5775,-4.5 0.105,-0.165 -1.8175,-0.4175 -5.767496,-0.7575 z"
     sodipodi:nodetypes="ccccc"
     style="fill:#3c5366;fill-opacity:1;stroke:#23557e;stroke-opacity:1" /><path
     id="shape19"
     fill="none"
     stroke="#000000"
     stroke-width="0.6"
     stroke-linecap="square"
     stroke-linejoin="bevel"
     d="m 3.3835706,81.547471 0.33,2.999996 4.59,-0.225 -0.0675,-2.917496 c 0.255,-0.055 -1.3625,-0.0075 -4.8525,0.1425 z"
     sodipodi:nodetypes="ccccc"
     style="fill:#3c5366;fill-opacity:1;stroke:#23557e;stroke-opacity:1" /><path
     id="shape20"
     fill="none"
     stroke="#000000"
     stroke-width="0.6"
     stroke-linecap="square"
     stroke-linejoin="bevel"
     d="m 61.891068,56.489977 c 2.34451,-0.142449 3.72709,-0.429187 4.8825,-0.75 l 0.7275,5.955 c -1.33846,0.61654 -3.21141,0.69859 -5.01,0.855 0,0 -0.2,-2.02 -0.6,-6.06 z"
     sodipodi:nodetypes="ccccc"
     style="fill:#3c5366;fill-opacity:1;stroke:#23557e;stroke-opacity:1" /><path
     id="shape21"
     fill="none"
     stroke="#000000"
     stroke-width="0.6"
     stroke-linecap="square"
     stroke-linejoin="bevel"
     d="m 68.438568,55.432477 0.8175,5.76 c 1.62884,-0.50027 3.22917,-1.04805 4.68,-1.845 l -1.155,-5.115004 c -0.20111,-0.0648 -1.64861,0.3352 -4.3425,1.200004 z"
     sodipodi:nodetypes="ccccc"
     style="fill:#3c5366;fill-opacity:1;stroke:#23557e;stroke-opacity:1" /><path
     id="shape22"
     fill="none"
     stroke="#000000"
     stroke-width="0.6"
     stroke-linecap="square"
     stroke-linejoin="bevel"
     d="m 74.468568,53.647477 1.2225,4.6725 c 2.09788,-1.26228 4.26049,-2.4868 5.6625,-4.155 l -1.9875,-3.315 c -0.82329,0.893012 -2.45579,1.82551 -4.8975,2.7975 z"
     sodipodi:nodetypes="ccccc"
     style="fill:#3c5366;fill-opacity:1;stroke:#23557e;stroke-opacity:1" /><path
     id="shape23"
     fill="none"
     stroke="#000000"
     stroke-width="0.6"
     stroke-linecap="square"
     stroke-linejoin="bevel"
     d="m 81.038568,49.82247 1.8375,2.8875 c 1.30237,-1.25263 2.48339,-2.62661 3.3675,-4.2975 l -2.265,-1.41 c 0.05975,0.231515 -0.92025,1.17151 -2.94,2.82 z"
     sodipodi:nodetypes="ccccc"
     style="fill:#3c5366;fill-opacity:1;stroke:#23557e;stroke-opacity:1" /><path
     id="shape24"
     fill="none"
     stroke="#000000"
     stroke-width="0.6"
     stroke-linecap="square"
     stroke-linejoin="bevel"
     d="m 85.066068,45.83997 c 0.54,0.14 1.235,0.505 2.085,1.095 0.62747,-1.06086 1.61445,-1.87429 1.695,-3.555 l -2.07,-0.84 c 0.17152,0.303698 -0.39848,1.4037 -1.71,3.3 z"
     sodipodi:nodetypes="ccccc"
     style="fill:#3c5366;fill-opacity:1;stroke:#23557e;stroke-opacity:1" /><path
     id="shape25"
     fill="none"
     stroke="#000000"
     stroke-width="0.6"
     stroke-linecap="square"
     stroke-linejoin="bevel"
     d="m 70.606078,16.064976 -0.045,15.885047 4.86,-0.045 0.09,-15.907547 c 0,-0.105 -1.635,-0.0825 -4.905,0.0675 z"
     sodipodi:nodetypes="ccccc"
     style="fill:#fef9ec;fill-opacity:1;stroke:#23557e;stroke-opacity:1" /><path
     id="shape04"
     fill="none"
     stroke="#000000"
     stroke-width="0.6"
     stroke-linecap="square"
     stroke-linejoin="bevel"
     d="m 9.3677476,16.080133 -0.045,15.885047 4.8600004,-0.045 0.09,-15.907547 c 0,-0.105 -1.635,-0.0825 -4.9050004,0.0675 z"
     sodipodi:nodetypes="ccccc"
     style="fill:#fef9ec;fill-opacity:1;stroke:#23557e;stroke-opacity:1" /><path
     id="shape26"
     fill="none"
     stroke="#000000"
     stroke-width="0.6"
     stroke-linecap="square"
     stroke-linejoin="bevel"
     d="m 10.951078,15.899975 0.06,-12.5399999 c 0.255585,-1.83247 0.01071,-2.99255805 3,-3.05999995 l 55.92,0.71999995 c 3.0426,-0.25220295 4.1225,1.15636 4.05,3.54 l 0.03,11.4899999 c -2.4808,-0.2081 -0.85,-0.05 -1.65,-0.09 l 0.21,-10.2599999 c 0.2778,-2.46352 -1.0592,-3.41519 -3.6,-3.24 l -54.18,-0.36 c -1.08414,-0.07373 -2.58598,0.24794 -2.31,1.83 V 15.809975 c 0.38,-0.14 -0.13,-0.11 -1.53,0.09 z"
     sodipodi:nodetypes="ccccccccccccc"
     style="fill:#fef9ec;fill-opacity:1;stroke:#23557e;stroke-opacity:1" /><rect
     id="shape27"
     fill="none"
     stroke="#000000"
     stroke-width="0.6"
     stroke-linecap="square"
     stroke-linejoin="bevel"
     width="25.68"
     height="19.26"
     rx="7.8600001"
     ry="7.8600001"
     x="30.361078"
     y="52.469978"
     style="fill:#fef9ec;fill-opacity:1;stroke:#23557e;stroke-opacity:1" /><rect
     id="shape05"
     fill="none"
     stroke="#000000"
     stroke-width="0.6"
     stroke-linecap="square"
     stroke-linejoin="bevel"
     width="22.666157"
     height="16.59"
     rx="6.9375386"
     ry="6.7703738"
     x="31.897417"
     y="53.759975"
     style="stroke:#23557e;stroke-opacity:1" /><path
     id="shape8"
     fill="none"
     stroke="#000000"
     stroke-width="0.6"
     stroke-linecap="square"
     stroke-linejoin="bevel"
     d="m 26.371068,77.669967 c 0.642292,7.4818 6.15497,12.0467 15.435,13.77 10.342,-0.273 16.5065,-4.55846 17.73,-13.59 0,0.09 -11.055,0.03 -33.165,-0.18 z"
     sodipodi:nodetypes="cccc"
     style="fill:#3c5366;fill-opacity:1;stroke:#23557e;stroke-opacity:1" /><g
     inkscape:label="Layer 1"
     id="layer1"
     transform="matrix(0.3502012,0,0,0.3502012,45.488907,-21.638966)"><g
       id="g1"
       transform="matrix(0.94928158,0.32317752,-0.30355181,1.010656,56.663433,-53.565189)"><path
         style="fill:#fef9ec;fill-opacity:1;stroke-width:4"
         d="m 122.54318,112.51655 c 0.41919,0 25.77976,0.20959 25.77976,0.20959 v 104.16699 l -26.19894,0.1048 z"
         id="path438" /><path
         style="fill:#23557e;fill-opacity:1;stroke-width:0.0916791"
         d="m 148.71661,218.13911 c -0.15405,0.0599 -6.21725,0.10821 -13.47385,0.10735 -14.14326,-0.002 -13.57305,0.0242 -14.03375,-0.63811 -0.18586,-0.2672 -0.20458,-5.08523 -0.20459,-52.63394 0,-47.54872 0.0187,-52.36675 0.20459,-52.63395 0.46093,-0.66268 -0.11383,-0.63668 14.08181,-0.63669 14.19577,10e-6 13.62095,-0.026 14.08178,0.63673 0.18582,0.26714 0.20551,5.0847 0.21494,52.51465 0.006,31.09583 -0.0372,52.34162 -0.10734,52.51994 -0.14536,0.36962 -0.39702,0.62143 -0.76381,0.7638 z m -13.42494,-104.02145 -11.89497,-2.6e-4 -0.002,1.84699 -0.002,1.84698 7.84614,0.002 7.84614,0.002 0.3229,0.32289 c 0.40903,0.40903 0.53703,0.89981 0.35279,1.34852 -0.30533,0.74361 0.03,0.71527 -8.52719,0.72081 l -7.84054,0.005 0.002,1.87223 0.002,1.87222 4.0583,-3.9e-4 c 2.23206,-2.2e-4 4.18285,0.0142 4.3351,0.032 0.18554,0.0217 0.38113,0.13669 0.59316,0.34873 0.26688,0.26687 0.31908,0.38498 0.33385,0.75522 0.0188,0.47145 -0.20459,0.88453 -0.61188,1.13142 -0.15127,0.0917 -1.63302,0.13906 -4.46799,0.14279 l -4.24163,0.006 -10e-6,1.84494 v 1.84492 l 4.24164,0.006 c 2.83496,0.004 4.31669,0.0511 4.46799,0.14277 0.40728,0.2469 0.63069,0.65996 0.61188,1.13143 -0.0147,0.36827 -0.0674,0.4884 -0.32738,0.74676 -0.1704,0.16937 -0.37962,0.32363 -0.46496,0.34278 -0.0853,0.0192 -2.03897,0.034 -4.34155,0.0329 l -4.18647,-0.002 -0.002,1.81523 c -9.7e-4,0.9984 0.0278,1.83 0.0639,1.84803 0.0361,0.018 1.9446,0.0355 4.2411,0.0388 3.60587,0.005 4.21477,0.033 4.46363,0.2032 0.52098,0.35639 0.70254,0.95492 0.46508,1.53323 -0.28762,0.70045 -0.31122,0.70386 -4.96354,0.71506 l -4.27073,0.0103 v 1.84415 1.84415 l 4.27136,0.009 c 3.74868,0.008 4.30685,0.0336 4.56159,0.21195 0.73704,0.51589 0.60842,1.82985 -0.20525,2.09682 -0.11726,0.0385 -2.10674,0.0732 -4.42102,0.0771 l -4.20778,0.007 0.002,1.85417 0.002,1.85417 7.62434,0.001 c 4.19337,5.5e-4 7.75182,0.0268 7.90763,0.0583 0.67305,0.13606 1.09927,1.00352 0.80997,1.64837 -0.34254,0.7635 0.0148,0.7326 -8.53601,0.73818 l -7.807,0.005 v 1.84552 1.84552 l 4.24164,0.006 c 2.83497,0.004 4.31669,0.0511 4.46799,0.14278 0.40728,0.24689 0.63069,0.65996 0.61187,1.13142 -0.0147,0.36797 -0.0677,0.48908 -0.32816,0.74954 -0.17087,0.17087 -0.41344,0.32873 -0.53899,0.35089 -0.12562,0.0221 -2.07893,0.0391 -4.34076,0.0376 l -4.11243,-0.003 -0.002,1.80729 c -0.001,0.99426 0.019,1.82849 0.0446,1.8541 0.0256,0.0256 1.84603,0.0438 4.04537,0.0405 2.19935,-0.003 4.16239,0.0345 4.36231,0.0842 0.19991,0.0497 0.45409,0.18068 0.56483,0.29115 0.46872,0.46756 0.36742,1.48031 -0.18612,1.8611 -0.24523,0.16872 -0.87698,0.19688 -4.55824,0.20332 l -4.27353,0.007 -10e-6,1.84416 v 1.84415 l 4.27417,0.006 c 3.68957,0.005 4.31301,0.0328 4.55825,0.20246 0.5529,0.38241 0.65375,1.39457 0.18548,1.86172 -0.11074,0.11047 -0.36507,0.24133 -0.56517,0.29082 -0.20011,0.0495 -2.16398,0.0882 -4.36417,0.0861 -2.20021,-0.002 -4.02046,0.0162 -4.04504,0.0408 -0.0245,0.0245 -0.0439,0.85823 -0.0429,1.85257 l 0.002,1.80791 4.0473,-0.003 c 2.226,-0.002 4.17679,0.0124 4.33507,0.0313 0.19626,0.0234 0.3884,0.13499 0.60413,0.35072 0.26688,0.26688 0.31908,0.38498 0.33384,0.75522 0.0188,0.47146 -0.20458,0.88453 -0.61187,1.13142 -0.15127,0.0917 -1.63302,0.13907 -4.468,0.14279 l -4.24162,0.006 -1e-5,1.84553 1e-5,1.84553 7.80699,0.005 c 8.55077,0.006 8.19347,-0.0253 8.53601,0.73819 0.28944,0.64516 -0.13629,1.51101 -0.81103,1.64943 -0.1564,0.0321 -3.71485,0.058 -7.90764,0.0577 l -7.62327,-6.5e-4 -0.002,1.85387 -0.002,1.85385 4.27518,0.006 c 2.81257,0.004 4.3513,0.0517 4.49767,0.14043 0.76645,0.46478 0.75298,1.63093 -0.024,2.07623 -0.26062,0.14932 -1.06663,0.18137 -4.53125,0.17995 l -4.2143,-0.002 -0.002,1.84667 -0.002,1.84666 4.2719,0.009 c 4.71939,0.01 4.71354,0.009 4.97399,0.77081 0.23413,0.68505 -0.0654,1.3511 -0.70999,1.579 -0.16603,0.0587 -2.13738,0.10469 -4.38081,0.10223 -2.24342,-0.002 -4.09609,0.0127 -4.11705,0.0336 -0.0209,0.0209 -0.0373,0.85475 -0.0364,1.85289 l 0.002,1.81481 4.18648,-0.002 c 2.30257,-0.001 4.25625,0.0137 4.34154,0.0329 0.0853,0.0192 0.29451,0.17345 0.46497,0.34277 0.2599,0.25849 0.3127,0.37847 0.32737,0.74676 0.0188,0.47146 -0.20458,0.88453 -0.61187,1.13142 -0.15127,0.0917 -1.63303,0.13907 -4.468,0.14279 l -4.24163,0.006 1e-5,1.84493 -1e-5,1.84494 4.24163,0.006 c 2.83497,0.004 4.31671,0.0511 4.468,0.14279 0.40728,0.24689 0.63068,0.65996 0.61187,1.13141 -0.0148,0.37026 -0.067,0.48835 -0.33384,0.75523 -0.21177,0.21176 -0.40776,0.32715 -0.59297,0.34893 -0.15213,0.0179 -2.10292,0.0326 -4.33508,0.0326 l -4.05846,-1e-5 -0.002,1.80666 c -9.6e-4,0.99365 0.0279,1.8363 0.0642,1.87255 0.0362,0.0362 3.53741,0.0657 7.78038,0.0654 5.29296,-3.4e-4 7.80069,0.0429 7.98913,0.1378 0.33865,0.17051 0.65016,0.67279 0.6328,1.02046 -0.007,0.13159 -0.0804,0.37959 -0.16414,0.55102 -0.34302,0.70242 0.006,0.67428 -8.46578,0.68339 l -7.83713,0.008 v 1.84622 1.84622 l 11.896,2.7e-4 11.896,2.6e-4 5e-5,-50.85674 6e-5,-50.85674 z"
         id="path304" /></g></g></svg>
