<svg width="17" height="18" viewBox="0 0 17 18" fill="none" xmlns="http://www.w3.org/2000/svg">
<path d="M7.10471 17.9076C6.8273 17.8675 6.584 17.8182 6.56404 17.798C6.53366 17.7672 6.12789 15.9029 5.78125 14.2015C5.6969 13.7874 5.66125 13.738 5.2007 13.3956L4.71002 13.0309L2.68814 13.1799C1.5761 13.2618 0.659826 13.3223 0.651969 13.3142C0.61324 13.2746 0 11.8026 0 11.7493C0 11.7154 0.681852 11.0635 1.51523 10.3007L3.03045 8.91375L3.08583 8.31557L3.1412 7.7174L2.13641 6.20746C1.58377 5.37699 1.07237 4.60668 0.999972 4.49566C0.869728 4.29595 0.873293 4.2871 1.33591 3.66182C1.59308 3.31423 1.83222 3.00058 1.86734 2.96483C1.90246 2.92909 2.80071 3.18589 3.86346 3.53551L5.79572 4.17119L6.35728 3.93455L6.91883 3.69791L7.80336 1.84315C8.8086 -0.264753 8.5911 -0.0697432 9.75524 0.0931002L10.4186 0.185895L10.8499 2.21802L11.2812 4.25015L11.7665 4.61515L12.2517 4.98017L14.0276 4.85327C15.0044 4.78348 15.923 4.71834 16.0691 4.70852L16.3348 4.69066L16.6674 5.49573L17 6.30079L15.5496 7.62774C14.7518 8.35757 14.0706 8.97418 14.0357 8.99798C14.0009 9.02178 13.9345 9.31621 13.8884 9.65225L13.8044 10.2632L14.9517 11.9929L16.099 13.7226L15.6035 14.3998C15.331 14.7723 15.0674 15.0771 15.0178 15.0771C14.9681 15.0771 14.0832 14.7983 13.0513 14.4576L11.1751 13.8381L10.611 14.078L10.0469 14.3179L9.16501 16.1589L8.28313 18L7.94611 17.9903C7.76075 17.9849 7.38212 17.9477 7.10471 17.9076ZM9.3987 11.3918C9.95557 11.2053 10.6188 10.5228 10.8458 9.90268C11.3265 8.58933 10.6642 7.1095 9.37651 6.61998C8.78956 6.39683 7.92892 6.42713 7.39894 6.6896C5.87639 7.44361 5.49044 9.44169 6.61657 10.74C7.27092 11.4944 8.34262 11.7455 9.3987 11.3918Z" fill="#87153A"/>
</svg>
