<svg width="14" height="15" viewBox="0 0 14 15" fill="none" xmlns="http://www.w3.org/2000/svg">
<path d="M11.5769 1.47424C12.1476 0.898603 13.0852 0.922101 13.6263 1.5256V1.5256C14.1189 2.07497 14.1042 2.91134 13.5925 3.44301L10.3255 6.83784V6.83784C9.77325 7.39012 9.77326 8.28556 10.3255 8.83784V8.83784L13.5503 12.4657C13.9879 12.9579 13.973 13.704 13.5162 14.1785V14.1785C13.0282 14.6855 12.2197 14.6951 11.7198 14.1999L8.32554 10.8378V10.8378C7.77326 10.2856 6.87782 10.2856 6.32554 10.8378V10.8378L3.06806 14.1872C2.49283 14.7786 1.54497 14.7852 0.961583 14.2018V14.2018C0.378196 13.6184 0.384783 12.6705 0.976224 12.0953L4.32554 8.83784V8.83784C4.87781 8.28555 4.87782 7.39012 4.32554 6.83784V6.83784L0.922072 3.03128C0.418486 2.46805 0.483334 1.59926 1.06495 1.11704V1.11704C1.60403 0.670081 2.39707 0.716568 2.88024 1.22345L6.32554 4.83784L6.3663 4.8786C6.88919 5.40149 7.7425 5.38295 8.24219 4.83784V4.83784L11.5769 1.47424Z" fill="#B72F2F"/>
</svg>
