<svg xmlns="http://www.w3.org/2000/svg" width="572" height="416" fill="none">
  <g clip-path="url(#a)">
    <path fill="#F2F2F2" d="M333.189 73.336c10.72 0 19.411-8.69 19.411-19.41s-8.691-19.41-19.411-19.41-19.411 8.69-19.411 19.41 8.691 19.41 19.411 19.41ZM483.765 361.402c28.852-21.975 42.633-58.901 34.005-94.126a99.704 99.704 0 0 0-.678-2.62c-5.72-20.91-19.87-40.782-40.493-47.463-17.316-5.61-36.218-1.296-54.283-3.527-35.463-4.379-62.957-33.072-82.302-63.113-19.345-30.041-34.213-63.668-59.918-88.487C237.724 21.157 168.605 12.35 116.07 38.978c-52.535 26.629-85.999 85.707-84.572 144.586 1.428 58.879 36.383 115.171 87.147 145.038 18.648 10.972 40.217 18.744 61.682 16.025 18.626-2.36 35.549-12.368 54.087-15.339 29.145-4.671 58.105 8.506 83.313 23.861 25.209 15.356 49.558 33.556 78.204 40.675 27.815 6.912 62.276-12.956 87.834-32.422Z"/>
    <path fill="#214E73" d="M442.312 40.215c-.633-.422-1.273-.822-1.905-1.229a276.431 276.431 0 0 0-58.384-28.3l-4.754 65.585h-30.14V1.112A249.03 249.03 0 0 0 341.407 0v76.271h-35.818a74.35 74.35 0 0 1-74.348-74.345c-1.919.415-3.824.858-5.728 1.33v73.015h-29.174l-4.529-62.539a276.89 276.89 0 0 0-59.569 31.644c-.319.218-.639.443-.952.661a248.305 248.305 0 0 0-4.769 3.439v250.207h85.98l-1.52-21.045-8.36-115.548h168.361l-8.361 115.548-1.519 21.045h85.027V42.744a218.426 218.426 0 0 0-3.816-2.53ZM225.513 144.008h-24.274l-4.486-62.009h28.76v62.009Zm115.894 0h-40.769v-1.229a4.5 4.5 0 0 0-1.318-3.179 4.49 4.49 0 0 0-3.182-1.313h-17.723a4.51 4.51 0 0 0-1.72.341 4.482 4.482 0 0 0-2.431 2.432 4.487 4.487 0 0 0-.342 1.719v1.229h-42.681V81.999h110.166v62.009Zm5.722 0V81.999h29.726l-4.486 62.009h-25.24ZM0 315.706a210.17 210.17 0 0 0 20.443 21.045l531.114.727A210.05 210.05 0 0 0 572 316.433l-572-.727Z"/>
    <path fill="#214E73" d="M360.166 248.318v62.302a2.998 2.998 0 0 0 2.995 2.995h92.329a2.997 2.997 0 0 0 2.994-2.995v-62.302a2.996 2.996 0 0 0-2.994-2.991h-92.329a2.999 2.999 0 0 0-2.995 2.991Z"/>
    <path fill="#87153A" d="M362.332 249.093v60.759a1.601 1.601 0 0 0 1.601 1.6h90.788a1.604 1.604 0 0 0 1.601-1.6v-60.759a1.603 1.603 0 0 0-1.601-1.603h-90.788a1.603 1.603 0 0 0-1.601 1.603Z"/>
    <path fill="#3C5366" d="M358.235 322.771a1.792 1.792 0 0 0 1.413.676h98.863a1.821 1.821 0 0 0 1.778-2.192l-1.534-7.29a1.82 1.82 0 0 0-1.133-1.321 1.764 1.764 0 0 0-.646-.122h-95.799c-.221 0-.44.041-.646.122a1.818 1.818 0 0 0-1.133 1.321l-1.534 7.29a1.816 1.816 0 0 0 .371 1.516Z"/>
    <path fill="#214E73" d="M453.584 315.662h2.335a.355.355 0 0 0 .355-.355v-1.117a.355.355 0 0 0-.355-.355h-2.335a.355.355 0 0 0-.355.355v1.117c0 .196.159.355.355.355ZM447.494 315.662h2.335a.355.355 0 0 0 .355-.355v-1.117a.355.355 0 0 0-.355-.355h-2.335a.355.355 0 0 0-.355.355v1.117c0 .196.159.355.355.355ZM441.404 315.662h2.336a.354.354 0 0 0 .354-.355v-1.117a.354.354 0 0 0-.354-.355h-2.336a.354.354 0 0 0-.354.355v1.117c0 .196.158.355.354.355ZM435.315 315.662h2.335a.355.355 0 0 0 .355-.355v-1.117a.355.355 0 0 0-.355-.355h-2.335a.355.355 0 0 0-.355.355v1.117c0 .196.159.355.355.355ZM429.225 315.662h2.335a.355.355 0 0 0 .355-.355v-1.117a.355.355 0 0 0-.355-.355h-2.335a.355.355 0 0 0-.355.355v1.117c0 .196.159.355.355.355ZM423.135 315.662h2.335a.355.355 0 0 0 .355-.355v-1.117a.355.355 0 0 0-.355-.355h-2.335a.355.355 0 0 0-.355.355v1.117c0 .196.159.355.355.355ZM417.045 315.662h2.335a.355.355 0 0 0 .355-.355v-1.117a.355.355 0 0 0-.355-.355h-2.335a.355.355 0 0 0-.355.355v1.117c0 .196.159.355.355.355ZM410.955 315.662h2.335a.355.355 0 0 0 .355-.355v-1.117a.355.355 0 0 0-.355-.355h-2.335a.355.355 0 0 0-.355.355v1.117c0 .196.159.355.355.355ZM404.865 315.662h2.335a.355.355 0 0 0 .355-.355v-1.117a.355.355 0 0 0-.355-.355h-2.335a.355.355 0 0 0-.355.355v1.117c0 .196.159.355.355.355ZM398.775 315.662h2.335a.355.355 0 0 0 .355-.355v-1.117a.355.355 0 0 0-.355-.355h-2.335a.355.355 0 0 0-.355.355v1.117c0 .196.159.355.355.355ZM392.685 315.662h2.336a.354.354 0 0 0 .354-.355v-1.117a.354.354 0 0 0-.354-.355h-2.336a.354.354 0 0 0-.354.355v1.117c0 .196.158.355.354.355ZM386.596 315.662h2.335a.355.355 0 0 0 .355-.355v-1.117a.355.355 0 0 0-.355-.355h-2.335a.355.355 0 0 0-.355.355v1.117c0 .196.159.355.355.355ZM380.506 315.662h2.335a.355.355 0 0 0 .355-.355v-1.117a.355.355 0 0 0-.355-.355h-2.335a.355.355 0 0 0-.355.355v1.117c0 .196.159.355.355.355ZM374.416 315.662h2.335a.355.355 0 0 0 .355-.355v-1.117a.355.355 0 0 0-.355-.355h-2.335a.355.355 0 0 0-.355.355v1.117c0 .196.159.355.355.355ZM368.326 315.662h2.335a.355.355 0 0 0 .355-.355v-1.117a.355.355 0 0 0-.355-.355h-2.335a.355.355 0 0 0-.355.355v1.117c0 .196.159.355.355.355ZM362.236 315.662h2.335a.355.355 0 0 0 .355-.355v-1.117a.355.355 0 0 0-.355-.355h-2.335a.355.355 0 0 0-.355.355v1.117c0 .196.159.355.355.355ZM453.656 318.706h2.335a.354.354 0 0 0 .355-.354v-1.118a.354.354 0 0 0-.355-.354h-2.335a.354.354 0 0 0-.355.354v1.118c0 .196.159.354.355.354ZM447.566 318.706h2.335a.354.354 0 0 0 .355-.354v-1.118a.354.354 0 0 0-.355-.354h-2.335a.354.354 0 0 0-.355.354v1.118c0 .196.159.354.355.354ZM441.476 318.706h2.336a.354.354 0 0 0 .355-.354v-1.118a.354.354 0 0 0-.355-.354h-2.336a.353.353 0 0 0-.354.354v1.118c0 .196.158.354.354.354ZM435.386 318.706h2.336a.354.354 0 0 0 .355-.354v-1.118a.354.354 0 0 0-.355-.354h-2.336a.353.353 0 0 0-.354.354v1.118c0 .196.158.354.354.354ZM429.297 318.706h2.335a.354.354 0 0 0 .355-.354v-1.118a.354.354 0 0 0-.355-.354h-2.335a.354.354 0 0 0-.355.354v1.118c0 .196.159.354.355.354ZM423.207 318.706h2.335a.354.354 0 0 0 .355-.354v-1.118a.354.354 0 0 0-.355-.354h-2.335a.354.354 0 0 0-.355.354v1.118c0 .196.159.354.355.354ZM417.117 318.706h2.335a.354.354 0 0 0 .355-.354v-1.118a.354.354 0 0 0-.355-.354h-2.335a.354.354 0 0 0-.355.354v1.118c0 .196.159.354.355.354ZM411.027 318.706h2.335a.354.354 0 0 0 .355-.354v-1.118a.354.354 0 0 0-.355-.354h-2.335a.354.354 0 0 0-.355.354v1.118c0 .196.159.354.355.354ZM404.937 318.706h2.335a.354.354 0 0 0 .355-.354v-1.118a.354.354 0 0 0-.355-.354h-2.335a.354.354 0 0 0-.355.354v1.118c0 .196.159.354.355.354ZM398.847 318.706h2.335a.354.354 0 0 0 .355-.354v-1.118a.354.354 0 0 0-.355-.354h-2.335a.354.354 0 0 0-.355.354v1.118c0 .196.159.354.355.354ZM392.757 318.706h2.336a.353.353 0 0 0 .354-.354v-1.118a.353.353 0 0 0-.354-.354h-2.336a.354.354 0 0 0-.355.354v1.118c0 .196.159.354.355.354ZM386.668 318.706h2.335a.354.354 0 0 0 .355-.354v-1.118a.354.354 0 0 0-.355-.354h-2.335a.354.354 0 0 0-.355.354v1.118c0 .196.159.354.355.354ZM380.578 318.706h2.335a.354.354 0 0 0 .355-.354v-1.118a.354.354 0 0 0-.355-.354h-2.335a.354.354 0 0 0-.355.354v1.118c0 .196.159.354.355.354ZM374.488 318.706h2.335a.354.354 0 0 0 .355-.354v-1.118a.354.354 0 0 0-.355-.354h-2.335a.354.354 0 0 0-.355.354v1.118c0 .196.159.354.355.354ZM368.398 318.706h2.335a.354.354 0 0 0 .355-.354v-1.118a.354.354 0 0 0-.355-.354h-2.335a.354.354 0 0 0-.355.354v1.118c0 .196.159.354.355.354ZM362.308 318.706h2.335a.354.354 0 0 0 .355-.354v-1.118a.354.354 0 0 0-.355-.354h-2.335a.354.354 0 0 0-.355.354v1.118c0 .196.159.354.355.354ZM403.11 322.36h23.65a.355.355 0 0 0 .355-.355v-1.117a.355.355 0 0 0-.355-.355h-23.65a.355.355 0 0 0-.355.355v1.117c0 .196.159.355.355.355Z"/>
    <path fill="#fff" d="M378.054 260.782h-2.067a1.135 1.135 0 1 0 0 2.27h2.067a1.135 1.135 0 1 0 0-2.27ZM401.698 260.782h-2.068a1.135 1.135 0 1 0 0 2.27h2.068a1.135 1.135 0 0 0 0-2.27ZM408.397 260.782h-2.068a1.135 1.135 0 1 0 0 2.27h2.068a1.135 1.135 0 0 0 0-2.27ZM395.266 260.593h-12.848a1.135 1.135 0 1 0 0 2.27h12.848a1.135 1.135 0 1 0 0-2.27ZM426.791 260.593h-12.849a1.135 1.135 0 0 0 0 2.27h12.849a1.135 1.135 0 1 0 0-2.27ZM384.359 265.905h-2.067a1.135 1.135 0 1 0 0 2.269h2.067a1.135 1.135 0 1 0 0-2.269ZM408.002 265.905h-2.067a1.135 1.135 0 1 0 0 2.269h2.067a1.135 1.135 0 1 0 0-2.269ZM414.701 265.905h-2.067a1.135 1.135 0 1 0 0 2.269h2.067a1.135 1.135 0 1 0 0-2.269ZM401.571 265.715h-12.848a1.135 1.135 0 0 0 0 2.27h12.848a1.135 1.135 0 1 0 0-2.27ZM433.096 265.715h-12.849a1.135 1.135 0 0 0 0 2.27h12.849a1.135 1.135 0 1 0 0-2.27ZM390.664 271.027h-2.067a1.135 1.135 0 1 0 0 2.27h2.067a1.135 1.135 0 1 0 0-2.27ZM414.307 271.027h-2.067a1.135 1.135 0 1 0 0 2.27h2.067a1.135 1.135 0 1 0 0-2.27ZM421.006 271.027h-2.067a1.135 1.135 0 1 0 0 2.27h2.067a1.135 1.135 0 1 0 0-2.27ZM407.876 270.838h-12.848a1.135 1.135 0 1 0 0 2.27h12.848a1.135 1.135 0 1 0 0-2.27ZM439.401 270.838h-12.849a1.135 1.135 0 0 0 0 2.27h12.849a1.135 1.135 0 1 0 0-2.27ZM396.969 276.15h-2.067a1.135 1.135 0 1 0 0 2.269h2.067a1.135 1.135 0 1 0 0-2.269ZM420.612 276.15h-2.067a1.135 1.135 0 1 0 0 2.269h2.067a1.135 1.135 0 1 0 0-2.269ZM427.311 276.15h-2.067a1.135 1.135 0 1 0 0 2.269h2.067a1.135 1.135 0 1 0 0-2.269ZM414.181 275.961h-12.848a1.135 1.135 0 1 0 0 2.269h12.848a1.135 1.135 0 1 0 0-2.269ZM401.698 296.519h-2.068a1.135 1.135 0 1 0 0 2.27h2.068a1.135 1.135 0 0 0 0-2.27ZM408.397 296.519h-2.068a1.135 1.135 0 1 0 0 2.27h2.068a1.135 1.135 0 0 0 0-2.27ZM426.791 296.708h-12.849a1.135 1.135 0 0 0 0 2.27h12.849a1.135 1.135 0 1 0 0-2.27ZM378.054 296.519h-2.067a1.135 1.135 0 1 0 0 2.27h2.067a1.135 1.135 0 1 0 0-2.27ZM395.266 296.708h-12.848a1.135 1.135 0 1 0 0 2.27h12.848a1.135 1.135 0 1 0 0-2.27ZM384.359 291.397h-2.067a1.135 1.135 0 1 0 0 2.269h2.067a1.135 1.135 0 1 0 0-2.269ZM408.002 291.397h-2.067a1.135 1.135 0 1 0 0 2.269h2.067a1.135 1.135 0 1 0 0-2.269ZM414.701 291.397h-2.067a1.135 1.135 0 1 0 0 2.269h2.067a1.135 1.135 0 1 0 0-2.269ZM401.571 291.586h-12.848a1.135 1.135 0 1 0 0 2.269h12.848a1.135 1.135 0 1 0 0-2.269ZM390.664 286.274h-2.067a1.135 1.135 0 1 0 0 2.27h2.067a1.135 1.135 0 1 0 0-2.27ZM414.307 286.274h-2.067a1.135 1.135 0 1 0 0 2.27h2.067a1.135 1.135 0 1 0 0-2.27ZM421.006 286.274h-2.067a1.135 1.135 0 1 0 0 2.27h2.067a1.135 1.135 0 1 0 0-2.27ZM407.876 286.463h-12.848a1.135 1.135 0 1 0 0 2.27h12.848a1.135 1.135 0 1 0 0-2.27ZM396.969 281.152h-2.067a1.135 1.135 0 1 0 0 2.269h2.067a1.135 1.135 0 1 0 0-2.269ZM420.612 281.152h-2.067a1.135 1.135 0 1 0 0 2.269h2.067a1.135 1.135 0 1 0 0-2.269ZM427.311 281.152h-2.067a1.135 1.135 0 1 0 0 2.269h2.067a1.135 1.135 0 1 0 0-2.269ZM414.181 281.341h-12.848a1.135 1.135 0 1 0 0 2.269h12.848a1.135 1.135 0 1 0 0-2.269Z"/>
    <path fill="#FFB6B6" d="m367.063 356.553-9.705-15.34 30.462-24.282 12.573-13.929a13.94 13.94 0 0 1 13.212-4.297 13.93 13.93 0 0 1 9.676 19.681 13.93 13.93 0 0 1-7.732 7.02l-19.882 7.324-28.604 23.823Z"/>
    <path fill="#3C5366" d="M139.354 245.33v74.556h52.233V245.33a2.503 2.503 0 0 0-1.766-2.399 2.3 2.3 0 0 0-.749-.116h-47.195a2.515 2.515 0 0 0-2.523 2.515Zm20.385 25.618a5.576 5.576 0 0 1 11.151 0v8.65a5.575 5.575 0 0 1-11.151 0v-8.65Z"/>
    <path fill="#214E73" d="M139.194 317.501v7.19a1.417 1.417 0 0 0 1.403 1.41h49.747a1.409 1.409 0 0 0 1.404-1.41v-7.19h-52.554ZM57.184 133.003V269.13a6.548 6.548 0 0 0 6.543 6.543h201.736a6.55 6.55 0 0 0 6.543-6.543V133.003a6.549 6.549 0 0 0-6.543-6.536H63.727a6.554 6.554 0 0 0-6.543 6.536Z"/>
    <path fill="#fff" d="M61.917 134.696v132.755a3.504 3.504 0 0 0 3.496 3.497h198.371a3.505 3.505 0 0 0 3.496-3.497V134.696a3.506 3.506 0 0 0-3.496-3.504H65.414a3.504 3.504 0 0 0-3.497 3.504Z"/>
    <path fill="#3C5366" d="M98.73 325.614a2.148 2.148 0 0 0 1.687.807h118.018a2.18 2.18 0 0 0 1.684-.804 2.17 2.17 0 0 0 .439-1.813l-1.832-8.702a2.173 2.173 0 0 0-1.353-1.577 2.094 2.094 0 0 0-.77-.146H102.242c-.264 0-.525.049-.771.146a2.173 2.173 0 0 0-1.352 1.577l-1.832 8.702a2.168 2.168 0 0 0 .444 1.81Z"/>
    <path fill="#214E73" d="M257.346 149.48H71.732a.737.737 0 0 1 0-1.476h185.614a.736.736 0 0 1 .722.738.738.738 0 0 1-.722.738ZM84.367 144.235c2.389 0 4.325-1.98 4.325-4.422 0-2.442-1.936-4.422-4.325-4.422-2.39 0-4.326 1.98-4.326 4.422 0 2.442 1.937 4.422 4.326 4.422ZM99.31 144.235c2.389 0 4.326-1.98 4.326-4.422 0-2.442-1.937-4.422-4.326-4.422-2.389 0-4.325 1.98-4.325 4.422 0 2.442 1.936 4.422 4.325 4.422ZM114.254 144.235c2.389 0 4.326-1.98 4.326-4.422 0-2.442-1.937-4.422-4.326-4.422-2.389 0-4.326 1.98-4.326 4.422 0 2.442 1.937 4.422 4.326 4.422ZM248.347 136.485h-10.614a.801.801 0 0 0-.556 1.364c.147.15.347.237.556.242h10.614a.805.805 0 0 0 .792-.803.804.804 0 0 0-.792-.803ZM248.347 139.501h-10.614a.805.805 0 0 0 0 1.607h10.614a.803.803 0 0 0 0-1.607ZM248.347 142.518h-10.614a.807.807 0 0 0-.784.803.806.806 0 0 0 .784.804h10.614a.802.802 0 0 0 .792-.804.805.805 0 0 0-.792-.803Z"/>
    <path fill="#3C5366" d="M504.228 320.656a4.663 4.663 0 0 0 4.495 3.149l19.259-.496a4.595 4.595 0 0 0 2.737-.97 4.595 4.595 0 0 0 1.611-2.415l2.725-29.141c.967.438 2.02.654 3.081.633a7.015 7.015 0 0 0 6.378-4.497 7.02 7.02 0 0 0-4.03-9.078 6.997 6.997 0 0 0-2.7-.467 5.888 5.888 0 0 0-1.263.131 4.763 4.763 0 0 0-3.543-1.529l-29.624.765a4.175 4.175 0 0 0-.731.091 4.624 4.624 0 0 0-3.543 6.008l5.148 37.816Zm31.386-31.852 1.94-6.944c.22-.803.225-1.649.014-2.453.094-.001.177-.045.272-.046a5.025 5.025 0 0 1 .235 10.045 4.725 4.725 0 0 1-2.461-.602Z"/>
    <path fill="#214E73" d="M502.623 276.832c.631 3.608 7.727 6.145 16.259 5.704 7.846-.361 14.262-3.116 15.437-6.381a4.375 4.375 0 0 0-1.341-.179l-29.624.765a4.175 4.175 0 0 0-.731.091Z"/>
    <path fill="#87153A" d="M520.446 304.643a.372.372 0 0 0 .11-.048l4.182-2.738a.362.362 0 0 0 0-.607l-4.347-2.848a.366.366 0 0 0-.557.236.357.357 0 0 0 .159.372l3.883 2.543-3.718 2.434a.365.365 0 0 0 .288.656ZM513.84 304.948a.365.365 0 0 0 .271-.303.362.362 0 0 0-.179-.365l-3.855-2.21 3.726-2.768a.367.367 0 0 0 .143-.238.358.358 0 0 0-.008-.142.358.358 0 0 0-.299-.271.353.353 0 0 0-.141.008.35.35 0 0 0-.128.06l-4.172 3.099a.366.366 0 0 0-.093.483.37.37 0 0 0 .128.124l4.337 2.486c.082.047.179.06.27.037ZM520.03 307.042a.366.366 0 0 0 .264-.267.353.353 0 0 0-.043-.275l-5.928-9.747a.365.365 0 0 0-.664.104.368.368 0 0 0 .042.275l5.929 9.747a.365.365 0 0 0 .4.163ZM186.716 189.607h-32.125a2.372 2.372 0 0 0-2.373 2.373v3.138a2.372 2.372 0 0 0 2.373 2.373h32.125a2.372 2.372 0 0 0 2.373-2.373v-3.138a2.372 2.372 0 0 0-2.373-2.373Z"/>
    <path fill="#E6E6E6" d="M205.442 205.375h-69.577a2.373 2.373 0 0 0-2.373 2.373v3.139a2.373 2.373 0 0 0 2.373 2.373h69.577a2.373 2.373 0 0 0 2.373-2.373v-3.139a2.373 2.373 0 0 0-2.373-2.373ZM205.442 221.144h-69.577a2.372 2.372 0 0 0-2.373 2.373v3.138a2.372 2.372 0 0 0 2.373 2.373h69.577a2.372 2.372 0 0 0 2.373-2.373v-3.138a2.372 2.372 0 0 0-2.373-2.373Z"/>
    <path fill="#214E73" d="m211.34 273.946.158.498.008.016 4.744 14.422 5.457 16.618 10.267 31.231.099 4.851v.017l.763 39.025-2.115 5.291 2.38 8.674s-1.094-13.112-6.966-5.582c-3.325 4.279-7.215 8.658-10.408 12.763a195.153 195.153 0 0 0 14.182 5.108c1.036.332 2.081.647 3.126.962l.672.199a194.006 194.006 0 0 0 48.962 7.87c.863.025 1.709.041 2.53.058.29.008.572.016.854.016.929.009 1.849.017 2.778.017 1.874 0 3.74-.028 5.598-.083a193.935 193.935 0 0 0 40.777-5.515c-.091-5.514-.34-11.958-.696-18.841-.166-3.375-3.89-7.032-4.114-10.565-.157-2.653 3.185-5.149 3.011-7.845-1.128-16.593-2.538-10.223-3.583-21.974a530.254 530.254 0 0 1-.299-3.309c-.671-7.547-1.136-12.265-1.136-12.265l4.462-28.121 7.008-44.15-.539-.888-.606-.298-36.962-18.294-2.007-5.142a7.98 7.98 0 0 0-7.373-5.05l-24.348-.099a7.948 7.948 0 0 0-6.477 3.292l-6.593 9.13-43.614 27.963Z"/>
    <path fill="#214E73" d="m237.588 329.781-5.515 11.801-3.765 8.06-6.477 33.91-3.242 3.441-2.779-12.183-29.077 6.456c-.954-5.299-.255.179-.844-5.634.166-.166.34-.332.514-.498.464-.431.854-.837.846-1.227-.332-20.052.663-54.176 8.973-74.85a43.61 43.61 0 0 1 5.109-9.529c.165-.224.323-.448.481-.671 3.831-5.366 6.253-10.648 9.686-14.405v-.008a.398.398 0 0 0 .058-.058.115.115 0 0 0 .033-.025l23.586-12.506 1.012 28.428.721 20.433.68 19.065ZM322.633 333.133l6.889 14.739 2.405 5.133 6.475 33.906 3.232 3.433 2.784-12.18 1.309-.269 23.596-4.887 6.878 21.842a13.072 13.072 0 0 0-2.371-16.36c-.47-.425-.861-.839-.85-1.23.392-23.584-1.051-66.649-14.079-84.373-4.138-5.625-6.621-11.228-10.233-15.142-.011-.011-.011-.022-.022-.022l-8.79-14.392-.537-.884-.604-.302-16.082 70.988Z"/>
    <path fill="#FFB6B6" d="M280.901 226.632c17.89 0 32.393-14.503 32.393-32.392 0-17.889-14.503-32.391-32.393-32.391s-32.392 14.502-32.392 32.391c0 17.889 14.502 32.392 32.392 32.392Z"/>
    <path fill="#3C5366" d="M324.684 171.615a2.743 2.743 0 0 0-1.955-.865l.487-1.352a2.562 2.562 0 0 0-1.543-3.313 2.562 2.562 0 0 0-1.336-.104l-1.774.342.167-1.185a2.571 2.571 0 0 0-3.438-2.777 2.75 2.75 0 0 1-2.356-.167 2.792 2.792 0 0 1-1.396-1.898l-.618-2.98-.065-.16c-3.01-5.016-8.796-8.665-15.877-10.003-6.303-1.199-12.766-.589-18.996-.014-2.472.232-5.263.494-7.59 1.919-1.977 1.221-3.649 3.664-3.307 6.128-6.143-1.883-12.73 1.875-15.994 6.615-3.867 5.641-4.5 12.707-4.602 18.232-.276 13.07 2.421 23.764 7.997 31.789.407.582.509 1.796 1.316 2.203l-.167-.269c.901.451 1.817 1.177 1.475 1.955-.981 2.239 5.54 7.19 10.134 8.825 8.383 2.988 19.527 2.734 27.364 1.658l.276-1.854c2.828-.385 4.82-1.119 5.38-2.268a64.178 64.178 0 0 0 2.566-2.297l.007-.007c.015-.015.044-.037.058-.051 3.541-3.395 4.362-5.329 4.733-8.273.356-2.886-.276-5.815-.923-8.454 13.623 2.108-5.365-14.51 7.328-17.723.145-.045.293-.081.443-.109.371-.087.742-.175 1.098-.276a19.23 19.23 0 0 0 4.885-2.087c3.548-2.159 4.718-5.023 6.55-8.251a2.49 2.49 0 0 0-.327-2.929ZM395.47 335.439a245.705 245.705 0 0 1-.08 5.256l-.022.938a622.793 622.793 0 0 1-.342 11.217 25.21 25.21 0 0 1-.029.777c-.203 5.263-.523 11.392-1.076 21.096-1.025 17.927-2.813 2.465-4.609 8.753a15.67 15.67 0 0 0-.269 1.119 20.302 20.302 0 0 1-1.366 4.602c-.953.567-1.934 1.112-2.901 1.657a203.704 203.704 0 0 1-13.151 6.71c-.254.116-.502.233-.749.342a196.988 196.988 0 0 1-25.262 9.639 175.299 175.299 0 0 1-5.067 1.461c-1.774.494-3.548.96-5.343 1.396a194.012 194.012 0 0 1-40.777 5.517c-1.853.058-3.722.08-5.597.08-.931 0-1.847-.007-2.777-.014-.284 0-.567-.008-.851-.015-.821-.022-1.672-.036-2.53-.058a193.83 193.83 0 0 1-48.962-7.873l-.676-.196c-1.047-.32-2.086-.632-3.126-.967a194.14 194.14 0 0 1-14.183-5.103 196.346 196.346 0 0 1-10.541-4.609.24.24 0 0 1-.088-.043c-.727-.335-1.461-.684-2.188-1.04-.094-.051-.196-.102-.298-.153a197.39 197.39 0 0 1-8.047-4.158c-2.232-5.125-5.373-6.106-7.321-10.613a18.78 18.78 0 0 1-1.221-4.173c0-.014-.008-.029-.008-.051.204 2.704-.865-4.798-.007-.029a41.859 41.859 0 0 0-.116-1.272c-2.494-24.345-2.334-52.187-3.417-75.13a569.838 569.838 0 0 0-.225-4.26c-.022-.45-.051-.894-.08-1.33.05-.131.109-.269.174-.4a.77.77 0 0 1 .051-.109 1.12 1.12 0 0 1 .073-.131l.051-.072a.495.495 0 0 1 .036-.073c.065-.102.138-.211.218-.313.036-.043.065-.08.102-.116a.602.602 0 0 1 .087-.102.448.448 0 0 1 .08-.094c.029-.029.058-.066.094-.102a.217.217 0 0 1 .059-.058c.057-.066.12-.127.189-.182.259-.239.536-.457.828-.654.102-.066.211-.131.313-.204a13.943 13.943 0 0 1 2.305-1.105c.276-.101.552-.196.85-.298.109-.029.211-.065.32-.101.16-.051.32-.102.487-.139a31.075 31.075 0 0 1 2.69-.654c.116-.022.24-.043.363-.073.175-.036.357-.065.538-.094.247-.044.502-.087.756-.131 2.159-.342 4.609-.596 7.314-.763l.763-.044.902-.043c.254-.015.516-.022.777-.029.255-.015.517-.022.786-.03.734-.021 1.49-.043 2.26-.058 2.196-.043 4.508-.029 6.936.022 1.127.029 2.275.058 3.453.109.08 0 .153.007.225.007 1.025.037 2.058.08 3.119.139.742.036 1.49.072 2.239.116.705.043 1.418.087 2.137.138.56.029 1.12.073 1.687.109.48.036.96.073 1.439.102l.655.043c.356.029.712.051 1.076.088.799.065 1.599.131 2.413.196.807.073 1.629.145 2.45.218.822.073 1.65.153 2.479.233l.247.021c.756.08 1.512.153 2.276.233.174.015.356.029.53.051.728.073 1.47.159 2.205.237l.675.072c.576.063 1.143.117 1.722.185.763.087 1.541.167 2.297.269.589.066 1.178.131 1.767.204.923.109 1.861.225 2.799.349.356.043.712.087 1.068.138 2.676.334 5.38.705 8.128 1.09 4.166.589 8.397 1.229 12.657 1.919 4.267.691 8.559 1.42 12.874 2.189 1.091.196 2.181.392 3.279.596l1.483.283c.843.153 1.687.313 2.53.473.843.159 1.687.319 2.53.487l3.017.588a705.948 705.948 0 0 1 19.592 4.166c1.054.24 2.108.487 3.155.727 2.094.487 4.168.981 6.223 1.483a115.5 115.5 0 0 1 1.686.407c1.396.349 2.792.698 4.166 1.054l.24.065c1.01.247 1.999.502 2.988.764 2.333.61 4.628 1.228 6.884 1.853a396.369 396.369 0 0 1 10.861 3.177 267.927 267.927 0 0 1 12.744 4.209c.691.247 1.374.509 2.058.756.981.364 1.948.727 2.893 1.091.291.109.574.225.858.334.182.08.356.145.53.218.342.138.691.269 1.026.407.341.131.676.269 1.01.414.327.131.662.269.981.408.328.13.647.269.967.414.269.109.531.225.785.342.517.225 1.033.45 1.534.683.248.116.495.225.742.342l.567.261c.08.044.16.08.24.117.182.087.371.181.552.269.422.196.836.407 1.243.603.546.276 1.076.552 1.585.821.516.277 1.018.553 1.498.822.08.043.152.087.232.131.109.058.219.123.328.181.37.211.727.429 1.083.64a50.37 50.37 0 0 1 1.977 1.272c.138.095.269.189.407.276.458.328.894.647 1.302.975 0 .007 0 .007.007.007.138.102.269.211.4.312.109.102.225.189.334.291.378.327.727.64 1.047.96.107.098.209.203.305.312a.809.809 0 0 1 .117.117 6.888 6.888 0 0 1 .45.501c.175.204.335.407.487.611.073.102.153.203.218.305.088.124.175.255.248.378.065.102.123.211.181.313.155.262.286.537.393.821.082.193.147.393.196.596.055.193.097.39.124.589Z"/>
    <path fill="#000" d="M395.47 335.439a245.705 245.705 0 0 1-.08 5.256c-.007.305-.022.618-.029.938a958.887 958.887 0 0 1-.364 11.994c-.203 5.263-.523 11.392-1.076 21.096-1.025 17.927-2.813 2.465-4.609 8.753a507.927 507.927 0 0 0-16.298-9.581 901.617 901.617 0 0 0-3.192-1.796c-11.69-6.521-24.746-13.354-38.377-20.122a151.72 151.72 0 0 0-1.621-.799c-31.224-15.433-65.304-30.445-92.915-40.462a427.286 427.286 0 0 0-15.201-5.212c-10.076-3.221-18.785-5.474-25.488-6.448-6.979-1.018-11.799-.655-13.747 1.446a569.838 569.838 0 0 0-.225-4.26l-.088-1.33c.045-.12.103-.234.16-.349l.022-.051a.77.77 0 0 1 .051-.109 1.12 1.12 0 0 1 .073-.131.764.764 0 0 1 .087-.145c.065-.102.138-.211.218-.313.059-.076.122-.149.189-.218a.424.424 0 0 1 .08-.094c.029-.029.058-.066.094-.102a.217.217 0 0 1 .059-.058c.057-.066.12-.127.189-.182.259-.239.536-.457.828-.654.102-.066.211-.131.313-.204a13.971 13.971 0 0 1 2.304-1.105c.277-.101.553-.196.851-.298.109-.029.211-.065.32-.101.16-.051.32-.102.487-.139a31.075 31.075 0 0 1 2.69-.654c.291-.058.596-.116.901-.167.247-.044.502-.087.756-.131 2.159-.342 4.609-.596 7.314-.763l.763-.044.901-.043c.255-.015.517-.022.778-.03.255-.014.517-.021.785-.029.735-.021 1.491-.043 2.261-.058 2.196-.036 4.508-.022 6.936.029 1.127.022 2.275.058 3.453.109.073 0 .153.008.225.008 1.025.029 2.065.08 3.119.131.741.036 1.49.072 2.239.116.705.043 1.418.087 2.137.138.56.029 1.12.073 1.687.109.48.036.96.073 1.439.102l1.731.131 2.413.196c.807.073 1.629.145 2.45.218.822.073 1.65.153 2.479.233l.247.021c.756.08 1.512.153 2.276.233 4.231.429 8.585.931 13.063 1.505 2.676.341 5.385.707 8.128 1.097 4.166.589 8.397 1.229 12.657 1.912 4.267.691 8.559 1.42 12.874 2.188 1.091.197 2.181.393 3.279.597 1.338.247 2.675.499 4.013.756.843.159 1.687.319 2.53.487l3.017.588a705.948 705.948 0 0 1 19.592 4.166c1.054.24 2.108.487 3.155.727a577.242 577.242 0 0 1 12.075 2.944v.007c.08.015.16.037.24.058 1.003.255 1.999.509 2.988.771a591.26 591.26 0 0 1 6.884 1.846c1.498.422 2.981.836 4.442 1.258a512.064 512.064 0 0 1 7.961 2.392c1.526.479 3.024.957 4.492 1.432 1.163.378 2.297.763 3.417 1.148 1.12.386 2.217.771 3.293 1.156.698.247 1.381.502 2.058.749.988.363 1.948.727 2.893 1.098.291.109.574.225.858.334.53.203 1.047.414 1.556.625.341.131.676.269 1.01.414.327.131.662.269.981.408.328.13.647.269.967.414.269.109.531.225.785.342.517.225 1.033.45 1.534.683.248.116.495.225.742.342l.567.261c.08.044.16.08.24.117.618.29 1.214.581 1.795.872.546.276 1.076.552 1.585.821.604.32 1.178.633 1.73.953.109.058.219.123.328.181.37.211.727.429 1.083.64a50.37 50.37 0 0 1 1.977 1.272c.611.422 1.178.836 1.709 1.251 0 .007 0 .007.007.007.254.203.501.407.734.603.378.327.727.64 1.047.96.107.098.209.203.305.312a.809.809 0 0 1 .117.117c.152.167.305.334.45.501.175.204.335.407.487.611.073.102.153.203.219.305.087.124.174.255.247.378.065.102.123.211.181.313.155.262.286.537.393.821.08.194.145.393.196.596.055.193.097.39.124.589Z" opacity=".2"/>
  </g>
  <defs>
    <clipPath id="a">
      <path fill="#fff" d="M0 0h572v416H0z"/>
    </clipPath>
  </defs>
</svg>